<svg width="193" height="42" viewBox="0 0 193 42" fill="none" xmlns="http://www.w3.org/2000/svg">
<path d="M16.6585 41H15.3818C12.0654 41 10.0701 40.9994 8.5459 40.7159L17.3669 29.0344L16.6585 41Z" fill="#006FEE"/>
<path d="M31.2482 40.7514C29.7502 40.9988 27.7875 41 24.6183 41H23.109L22.397 29.0309L31.2482 40.7514Z" fill="#006FEE"/>
<path d="M39.6714 32.6708C39.607 32.9773 39.5312 33.2655 39.4388 33.5426C38.8336 35.3567 37.7711 36.9522 36.3866 38.1982L26.4399 27.044L39.6714 32.6708Z" fill="#006FEE"/>
<path d="M3.4854 38.0792C2.16393 36.8511 1.14735 35.3 0.561036 33.5426C0.459507 33.2382 0.375209 32.921 0.307129 32.5803L13.3239 27.0458L3.4854 38.0792Z" fill="#006FEE"/>
<path d="M40 25.6183C40 26.7428 39.9968 27.7154 39.9858 28.5692L28.1729 24.006H40V25.6183Z" fill="#006FEE"/>
<path d="M11.5962 24.006L0.0106534 28.4805C0.000706105 27.6481 0 26.704 0 25.6183V24.006H11.5962Z" fill="#006FEE"/>
<path d="M24.6183 1C28.7807 1 30.862 1.00055 32.5426 1.56108C35.7979 2.64713 38.3529 5.20208 39.4389 8.45739C39.9994 10.138 40 12.2193 40 16.3817V21.016H27.5089L36.5181 17.1861L33.8459 15.4123L25.1048 18.7876L29.2081 13.358L26.2571 12.5501L21.7259 17.6282L21.3885 11.9091H18.3825L18.0398 17.6282L13.5121 12.5501L10.5629 13.358L14.6609 18.7859L5.92507 15.4123L3.25284 17.1861L12.2603 21.016H0V16.3817C0 12.2193 0.000553668 10.138 0.56108 8.45739C1.64713 5.20208 4.20208 2.64713 7.45739 1.56108C9.13798 1.00055 11.2193 1 15.3817 1H24.6183Z" fill="#006FEE"/>
<path d="M53.1899 21.25C53.1899 19.4033 53.5033 17.7167 54.1299 16.19C54.7633 14.6633 55.6399 13.3467 56.7599 12.24C57.8799 11.1267 59.1933 10.2667 60.6999 9.65999C62.2066 9.05332 63.8333 8.74999 65.5799 8.74999C68.0999 8.74999 70.3333 9.35332 72.2799 10.56C74.2333 11.76 75.6999 13.48 76.6799 15.72L72.7199 16.88C72.2066 15.8933 71.5699 15.0967 70.8099 14.49C70.0566 13.8833 69.2366 13.44 68.3499 13.16C67.4633 12.88 66.5633 12.74 65.6499 12.74C64.1566 12.74 62.8266 13.0967 61.6599 13.81C60.4933 14.5233 59.5899 15.52 58.9499 16.8C58.3033 18.0867 57.9799 19.57 57.9799 21.25C57.9799 22.93 58.3033 24.4067 58.9499 25.68C59.5899 26.9533 60.4933 27.95 61.6599 28.67C62.8266 29.39 64.1566 29.75 65.6499 29.75C66.5833 29.75 67.5099 29.6067 68.4299 29.32C69.3566 29.0267 70.2166 28.53 71.0099 27.83C71.8033 27.13 72.4799 26.1967 73.0399 25.03L76.9199 26.11C75.9199 28.6567 74.4266 30.5667 72.4399 31.84C70.4599 33.1067 68.1733 33.74 65.5799 33.74C63.8333 33.74 62.2066 33.44 60.6999 32.84C59.1933 32.2333 57.8799 31.37 56.7599 30.25C55.6399 29.1233 54.7633 27.7967 54.1299 26.27C53.5033 24.7433 53.1899 23.07 53.1899 21.25ZM93.6899 33.5H89.5599L89.2099 31.36C88.6233 32.0867 87.9633 32.66 87.2299 33.08C86.4966 33.5 85.5099 33.71 84.2699 33.71C83.1033 33.71 82.0833 33.5067 81.2099 33.1C80.3366 32.6867 79.6533 32.1133 79.1599 31.38C78.6733 30.6467 78.4299 29.7767 78.4299 28.77C78.4299 27.3033 78.9599 26.0867 80.0199 25.12C81.0799 24.1467 82.6833 23.5333 84.8299 23.28L89.2099 22.79V21.56C89.2099 21.0733 88.9866 20.62 88.5399 20.2C88.0999 19.78 87.3999 19.57 86.4399 19.57C85.5999 19.57 84.8699 19.7733 84.2499 20.18C83.6366 20.5867 83.2233 21.2 83.0099 22.02L79.1599 20.62C79.6266 19.0533 80.5133 17.85 81.8199 17.01C83.1266 16.17 84.7366 15.75 86.6499 15.75C88.9833 15.75 90.7399 16.33 91.9199 17.49C93.0999 18.6433 93.6899 20.1633 93.6899 22.05V33.5ZM89.2099 26.18V25.91L85.4299 26.39C84.6566 26.49 84.0733 26.72 83.6799 27.08C83.2799 27.44 83.0799 27.8767 83.0799 28.39C83.0799 28.8833 83.2799 29.2967 83.6799 29.63C84.0733 29.97 84.6333 30.14 85.3599 30.14C86.1733 30.14 86.8666 29.9867 87.4399 29.68C88.0133 29.38 88.4499 28.94 88.7499 28.36C89.0566 27.7733 89.2099 27.0467 89.2099 26.18ZM100.3 30.88L100.86 30.8V40.5H96.3799V16H100.44L100.72 18.17C101.233 17.49 101.957 16.9167 102.89 16.45C103.823 15.9833 104.897 15.75 106.11 15.75C107.63 15.75 108.973 16.1267 110.14 16.88C111.307 17.62 112.22 18.6633 112.88 20.01C113.547 21.35 113.88 22.93 113.88 24.75C113.88 26.57 113.547 28.1567 112.88 29.51C112.22 30.8633 111.31 31.9067 110.15 32.64C108.997 33.3733 107.65 33.74 106.11 33.74C104.757 33.74 103.583 33.4633 102.59 32.91C101.603 32.35 100.84 31.6733 100.3 30.88ZM109.05 24.75C109.05 23.2767 108.67 22.0933 107.91 21.2C107.157 20.3 106.173 19.85 104.96 19.85C104.213 19.85 103.53 20.0433 102.91 20.43C102.29 20.81 101.793 21.3567 101.42 22.07C101.047 22.7833 100.86 23.6767 100.86 24.75C100.86 25.7967 101.047 26.6833 101.42 27.41C101.793 28.13 102.29 28.6833 102.91 29.07C103.53 29.4567 104.213 29.65 104.96 29.65C106.173 29.65 107.157 29.2 107.91 28.3C108.67 27.4 109.05 26.2167 109.05 24.75ZM114.27 16H116.75V11.1H121.3V16H125.15V19.95H121.3V27.06C121.3 27.9733 121.493 28.6133 121.88 28.98C122.267 29.3533 122.757 29.5533 123.35 29.58C123.943 29.6 124.543 29.5667 125.15 29.48V33.32C124.077 33.5533 123.033 33.6233 122.02 33.53C121.007 33.4367 120.103 33.1633 119.31 32.71C118.517 32.2567 117.89 31.5633 117.43 30.63C116.977 29.6967 116.75 28.5067 116.75 27.06V19.95H114.27V16ZM142.3 16V33.5H138.2L137.89 31.68C137.33 32.3333 136.647 32.84 135.84 33.2C135.04 33.56 134.183 33.74 133.27 33.74C131.917 33.74 130.75 33.45 129.77 32.87C128.79 32.29 128.033 31.4433 127.5 30.33C126.96 29.2233 126.69 27.8533 126.69 26.22V16H131.2V25.66C131.2 26.9933 131.463 28.0033 131.99 28.69C132.517 29.3767 133.327 29.72 134.42 29.72C135.493 29.72 136.33 29.37 136.93 28.67C137.523 27.97 137.82 26.9567 137.82 25.63V16H142.3ZM145.2 33.5V16H149.27L149.58 18.24C150.067 17.6333 150.62 17.1367 151.24 16.75C151.86 16.3633 152.543 16.0967 153.29 15.95C154.037 15.7967 154.817 15.8133 155.63 16V20.2C155.003 19.9867 154.347 19.9267 153.66 20.02C152.973 20.1133 152.33 20.36 151.73 20.76C151.137 21.1533 150.647 21.72 150.26 22.46C149.88 23.1933 149.69 24.12 149.69 25.24V33.5H145.2ZM164.7 33.74C162.947 33.74 161.407 33.3567 160.08 32.59C158.747 31.8167 157.713 30.7433 156.98 29.37C156.247 27.99 155.88 26.4033 155.88 24.61C155.88 22.8833 156.24 21.3533 156.96 20.02C157.687 18.6933 158.697 17.65 159.99 16.89C161.283 16.13 162.76 15.75 164.42 15.75C166.1 15.75 167.58 16.1133 168.86 16.84C170.147 17.56 171.147 18.57 171.86 19.87C172.567 21.1633 172.92 22.6733 172.92 24.4C172.92 24.6533 172.903 24.94 172.87 25.26C172.837 25.5733 172.797 25.9033 172.75 26.25H160.71C160.803 27.0033 161.043 27.64 161.43 28.16C161.81 28.6867 162.287 29.0967 162.86 29.39C163.433 29.6767 164.08 29.82 164.8 29.82C165.667 29.82 166.443 29.64 167.13 29.28C167.817 28.92 168.313 28.4467 168.62 27.86L172.61 29.05C171.91 30.55 170.867 31.7067 169.48 32.52C168.087 33.3333 166.493 33.74 164.7 33.74ZM160.74 23H168.02C168 22.3467 167.827 21.7567 167.5 21.23C167.173 20.71 166.74 20.3033 166.2 20.01C165.667 19.7167 165.073 19.57 164.42 19.57C163.833 19.57 163.283 19.72 162.77 20.02C162.257 20.3267 161.82 20.73 161.46 21.23C161.1 21.73 160.86 22.32 160.74 23ZM187.66 18.63L187.1 18.7V8.29999H191.58V33.5H187.52L187.24 31.33C186.68 31.9833 185.94 32.55 185.02 33.03C184.093 33.5033 183.023 33.74 181.81 33.74C180.297 33.74 178.957 33.37 177.79 32.63C176.623 31.8767 175.713 30.83 175.06 29.49C174.407 28.15 174.08 26.57 174.08 24.75C174.08 22.93 174.407 21.3433 175.06 19.99C175.713 18.6367 176.623 17.5933 177.79 16.86C178.957 16.12 180.297 15.75 181.81 15.75C183.19 15.75 184.377 16.03 185.37 16.59C186.357 17.15 187.12 17.83 187.66 18.63ZM178.91 24.75C178.91 26.2167 179.283 27.4 180.03 28.3C180.777 29.2 181.757 29.65 182.97 29.65C183.717 29.65 184.4 29.4567 185.02 29.07C185.633 28.6833 186.133 28.13 186.52 27.41C186.907 26.6833 187.1 25.7967 187.1 24.75C187.1 23.6967 186.907 22.81 186.52 22.09C186.133 21.3633 185.633 20.81 185.02 20.43C184.4 20.0433 183.717 19.85 182.97 19.85C181.757 19.85 180.777 20.3 180.03 21.2C179.283 22.0933 178.91 23.2767 178.91 24.75Z" fill="#111111"/>
</svg>
