<svg width="163" height="58" viewBox="0 0 163 58" fill="none" xmlns="http://www.w3.org/2000/svg">
<path d="M10.8462 27.7916C10.8462 21.1183 16.2418 15.7083 22.8974 15.7083C29.5532 15.7083 34.9487 21.1183 34.9487 27.7916H45.7949C45.7949 15.1121 35.5433 4.83331 22.8974 4.83331C10.2515 4.83331 1.10872e-06 15.1121 0 27.7916C-1.10872e-06 40.4712 10.2515 50.75 22.8974 50.75V39.875C16.2418 39.875 10.8462 34.4652 10.8462 27.7916Z" fill="#006FEE"/>
<path opacity="0.5" d="M34.9487 27.7916C34.9487 34.465 40.3443 39.875 47 39.875V50.75C34.3541 50.75 24.1025 40.4712 24.1025 27.7916H34.9487Z" fill="#155EEF"/>
<path d="M61.16 42.42C59.8533 42.42 58.6733 42.1166 57.62 41.51C56.5733 40.9033 55.7466 40.0333 55.14 38.9C54.5333 37.7666 54.23 36.4433 54.23 34.93V23.8H58.95V33.77C58.95 35.3366 59.2666 36.48 59.9 37.2C60.5266 37.9266 61.4233 38.29 62.59 38.29C63.5966 38.29 64.4766 37.9266 65.23 37.2C65.99 36.48 66.37 35.3366 66.37 33.77V23.8H71.1V42H66.51V39.27C66.07 40.3166 65.4233 41.1033 64.57 41.63C63.7166 42.1566 62.58 42.42 61.16 42.42ZM82.89 42.45C81.0233 42.45 79.3566 42.02 77.89 41.16C76.4166 40.2933 75.2666 39.1433 74.44 37.71C73.6133 36.2766 73.2 34.6833 73.2 32.93C73.2 31.1833 73.6133 29.5866 74.44 28.14C75.2666 26.6933 76.4166 25.5366 77.89 24.67C79.3566 23.81 81.0233 23.38 82.89 23.38C84.7833 23.38 86.4566 23.81 87.91 24.67C89.37 25.5366 90.5133 26.6933 91.34 28.14C92.1733 29.5866 92.59 31.1833 92.59 32.93C92.59 34.6833 92.1733 36.2766 91.34 37.71C90.5133 39.1433 89.37 40.2933 87.91 41.16C86.4566 42.02 84.7833 42.45 82.89 42.45ZM82.89 38.15C83.8966 38.15 84.7733 37.91 85.52 37.43C86.2666 36.95 86.8433 36.3133 87.25 35.52C87.6566 34.7333 87.86 33.87 87.86 32.93C87.86 31.9766 87.6566 31.1033 87.25 30.31C86.8433 29.5166 86.2666 28.88 85.52 28.4C84.7733 27.92 83.8966 27.68 82.89 27.68C81.89 27.68 81.0166 27.92 80.27 28.4C79.5233 28.88 78.9433 29.5166 78.53 30.31C78.1233 31.1033 77.92 31.9766 77.92 32.93C77.92 33.87 78.1233 34.7333 78.53 35.52C78.9433 36.3133 79.5233 36.95 80.27 37.43C81.0166 37.91 81.89 38.15 82.89 38.15ZM103.19 42H100.6C98.8066 42 97.43 41.5566 96.47 40.67C95.5166 39.7833 95.04 38.3466 95.04 36.36V27.82H92.48V23.8H95.04V20.12L99.76 19.63V23.8H103.61V27.82H99.76V36.12C99.76 37.24 100.25 37.8 101.23 37.8H103.19V42ZM107.53 22.29C106.737 22.29 106.067 22.0166 105.52 21.47C104.973 20.9233 104.7 20.2633 104.7 19.49C104.7 18.7433 104.973 18.0966 105.52 17.55C106.067 17.0033 106.737 16.73 107.53 16.73C108.35 16.73 109.027 17.0033 109.56 17.55C110.1 18.0966 110.37 18.7433 110.37 19.49C110.37 20.2833 110.1 20.95 109.56 21.49C109.027 22.0233 108.35 22.29 107.53 22.29ZM109.91 42H105.19V23.8H109.91V42ZM121.43 42.45C119.563 42.45 117.917 42.02 116.49 41.16C115.07 40.2933 113.967 39.1433 113.18 37.71C112.4 36.2766 112.01 34.6833 112.01 32.93C112.01 31.1833 112.42 29.58 113.24 28.12C114.053 26.66 115.167 25.5 116.58 24.64C117.993 23.7733 119.61 23.34 121.43 23.34C123.25 23.34 124.853 23.7733 126.24 24.64C127.627 25.5 128.71 26.66 129.49 28.12C130.277 29.58 130.67 31.1833 130.67 32.93C130.67 33.19 130.657 33.46 130.63 33.74C130.61 34.02 130.577 34.31 130.53 34.61H116.91C117.17 35.69 117.69 36.5666 118.47 37.24C119.25 37.9133 120.237 38.25 121.43 38.25C122.457 38.25 123.347 38.0166 124.1 37.55C124.86 37.09 125.45 36.5066 125.87 35.8L129.55 38.57C128.823 39.7166 127.737 40.65 126.29 41.37C124.843 42.09 123.223 42.45 121.43 42.45ZM121.36 27.4C120.24 27.4 119.283 27.74 118.49 28.42C117.697 29.0933 117.17 29.98 116.91 31.08H125.91C125.65 30.0733 125.117 29.21 124.31 28.49C123.51 27.7633 122.527 27.4 121.36 27.4ZM137.46 42H132.73V23.8H137.39V26.46C138.343 24.4066 140.197 23.38 142.95 23.38C144.257 23.38 145.437 23.6833 146.49 24.29C147.537 24.8966 148.363 25.76 148.97 26.88C149.577 28 149.88 29.33 149.88 30.87V42H145.16V32.02C145.16 30.4333 144.797 29.2866 144.07 28.58C143.35 27.8666 142.407 27.51 141.24 27.51C140.233 27.51 139.35 27.8666 138.59 28.58C137.837 29.2866 137.46 30.4333 137.46 32.02V42ZM161.68 42H159.09C157.29 42 155.913 41.5566 154.96 40.67C154 39.7833 153.52 38.3466 153.52 36.36V27.82H150.97V23.8H153.52V20.12L158.25 19.63V23.8H162.1V27.82H158.25V36.12C158.25 37.24 158.74 37.8 159.72 37.8H161.68V42Z" fill="#111111"/>
</svg>
