<svg width="167" height="40" viewBox="0 0 167 40" fill="none" xmlns="http://www.w3.org/2000/svg">
<path d="M15.4992 3H36.5808L21.0816 25.9729H0L15.4992 3Z" fill="#262626"/>
<path d="M16.4224 28.102L10.4192 37H32.5008L48 14.0271H31.7024L22.2064 28.102H16.4224Z" fill="#A3A3A3"/>
<path d="M79.57 32H62.48V8.38H67.41V27.68H79.57V32ZM86.77 32.32C84.71 32.32 83.0966 31.82 81.93 30.82C80.7633 29.82 80.18 28.5033 80.18 26.87C80.18 25.1367 80.7833 23.8033 81.99 22.87C83.1966 21.9367 84.9266 21.47 87.18 21.47H92.2V20.8C92.2 18.9133 91.0733 17.97 88.82 17.97C86.8533 17.97 85.6666 18.65 85.26 20.01H80.45C80.8366 18.09 81.74 16.6333 83.16 15.64C84.58 14.6467 86.4666 14.15 88.82 14.15C91.4266 14.15 93.4133 14.7333 94.78 15.9C96.1533 17.0667 96.84 18.7667 96.84 21V27.22H99.11V32H94.21V29.14H92.99C92.3833 30.1533 91.5766 30.9367 90.57 31.49C89.5566 32.0433 88.29 32.32 86.77 32.32ZM87.5 28.65C88.42 28.65 89.2266 28.4833 89.92 28.15C90.6266 27.8167 91.1833 27.3733 91.59 26.82C91.9966 26.2667 92.2 25.64 92.2 24.94V24.68H87.42C85.6666 24.68 84.79 25.33 84.79 26.63C84.79 27.2767 85.0333 27.7733 85.52 28.12C86.0066 28.4733 86.6666 28.65 87.5 28.65ZM104.48 39H100.48V35.12H104.33L105.7 31.85L98.15 14.5H103.28L108.18 26.28H108.3L113.08 14.5H118.04L110.55 32L109.12 35.38C108.633 36.5267 108.067 37.4167 107.42 38.05C106.78 38.6833 105.8 39 104.48 39ZM126.85 32.35C124.963 32.35 123.32 31.9767 121.92 31.23C120.52 30.4767 119.44 29.4167 118.68 28.05C117.927 26.6767 117.55 25.0567 117.55 23.19C117.55 21.3233 117.917 19.7133 118.65 18.36C119.39 17.0133 120.447 15.9733 121.82 15.24C123.193 14.5133 124.81 14.15 126.67 14.15C128.503 14.15 130.077 14.5 131.39 15.2C132.697 15.9 133.7 16.9 134.4 18.2C135.1 19.5067 135.45 21.0633 135.45 22.87V24.5H122.18C122.38 25.8067 122.877 26.8 123.67 27.48C124.47 28.16 125.52 28.5 126.82 28.5C127.853 28.5 128.67 28.3267 129.27 27.98C129.87 27.6267 130.297 27.09 130.55 26.37H135.4C135.007 28.2367 134.063 29.7 132.57 30.76C131.07 31.82 129.163 32.35 126.85 32.35ZM122.3 21.3H130.82C130.66 20.1867 130.23 19.3533 129.53 18.8C128.83 18.2467 127.887 17.97 126.7 17.97C125.513 17.97 124.547 18.2533 123.8 18.82C123.053 19.38 122.553 20.2067 122.3 21.3ZM143.56 32H138.81V19.28H136.42V14.5H141.32V17.94H142.54C143.007 16.7133 143.747 15.8 144.76 15.2C145.773 14.6 146.91 14.3 148.17 14.3H149.66V18.5H147.97C146.45 18.5 145.337 18.9267 144.63 19.78C143.917 20.6333 143.56 21.76 143.56 23.16V32ZM158.32 32.35C155.753 32.35 153.727 31.81 152.24 30.73C150.753 29.65 149.95 28.14 149.83 26.2H154.5C154.653 27.0333 155.057 27.6533 155.71 28.06C156.363 28.4733 157.303 28.68 158.53 28.68C160.53 28.68 161.53 28.1233 161.53 27.01C161.53 26.5633 161.38 26.21 161.08 25.95C160.78 25.6833 160.28 25.4833 159.58 25.35L155.67 24.59C152.17 23.91 150.42 22.2667 150.42 19.66C150.42 17.9867 151.09 16.65 152.43 15.65C153.77 14.65 155.627 14.15 158 14.15C160.353 14.15 162.22 14.6667 163.6 15.7C164.98 16.7267 165.74 18.1633 165.88 20.01H161.21C160.997 19.1967 160.617 18.6033 160.07 18.23C159.523 17.8633 158.737 17.68 157.71 17.68C156.817 17.68 156.137 17.81 155.67 18.07C155.203 18.3367 154.97 18.73 154.97 19.25C154.97 19.6233 155.113 19.9367 155.4 20.19C155.693 20.4433 156.143 20.6267 156.75 20.74L160.74 21.5C162.567 21.8667 163.91 22.46 164.77 23.28C165.623 24.0933 166.05 25.2 166.05 26.6C166.05 28.4133 165.383 29.8233 164.05 30.83C162.717 31.8433 160.807 32.35 158.32 32.35Z" fill="#111111"/>
</svg>
