<svg width="198" height="48" viewBox="0 0 198 48" fill="none" xmlns="http://www.w3.org/2000/svg">
<path opacity="0.4" d="M45.7999 21.2369C43.7211 23.3157 40.3508 23.3157 38.272 21.2369C36.1932 19.1582 36.1932 15.7878 38.272 13.709C40.3508 11.6302 43.7211 11.6302 45.7999 13.709C47.8787 15.7878 47.8787 19.1582 45.7999 21.2369Z" fill="#155EEF"/>
<path opacity="0.6" d="M45.7954 21.2361C43.7166 23.3148 40.3462 23.3148 38.2674 21.2361L30.8331 13.8018C28.7543 11.723 25.384 11.723 23.3052 13.8018C21.2264 15.8806 21.2264 19.2509 23.3052 21.3297L30.7395 28.764C32.8183 30.8428 36.1886 30.8428 38.2674 28.764L45.7954 21.2361Z" fill="#155EEF"/>
<path d="M38.2671 28.7652C36.1883 30.844 32.8179 30.844 30.7391 28.7652L16.3106 14.3366C13.5388 11.5649 9.04501 11.5649 6.27329 14.3366L0 20.6099C2.07879 18.5311 5.44916 18.5311 7.52795 20.6099L23.2112 36.2931C25.29 38.3719 28.6603 38.3719 30.7391 36.2931L38.2671 28.7652Z" fill="#155EEF"/>
<path d="M64 35L58.57 14H64.3L67.15 27.02L70.45 14H75.55L79.24 27.08L82.3 14H87.4L82 35H76.6L72.85 21.44L69.4 35H64ZM92.9559 35.39C91.8159 35.39 90.8359 35.17 90.0159 34.73C89.2159 34.29 88.6059 33.69 88.1859 32.93C87.7659 32.15 87.5559 31.29 87.5559 30.35C87.5559 28.77 88.0359 27.56 88.9959 26.72C89.9759 25.88 91.4459 25.46 93.4059 25.46H97.9059V24.8C97.9059 23.84 97.6759 23.18 97.2159 22.82C96.7759 22.46 96.1559 22.28 95.3559 22.28C94.5959 22.28 94.0359 22.4 93.6759 22.64C93.3159 22.86 93.1159 23.23 93.0759 23.75H88.4559C88.5159 22.79 88.8159 21.93 89.3559 21.17C89.9159 20.41 90.7059 19.81 91.7259 19.37C92.7659 18.93 94.0259 18.71 95.5059 18.71C96.9059 18.71 98.1359 18.92 99.1959 19.34C100.256 19.76 101.076 20.44 101.656 21.38C102.256 22.3 102.556 23.54 102.556 25.1V30.95C102.556 31.79 102.576 32.53 102.616 33.17C102.656 33.79 102.716 34.4 102.796 35H98.3859C98.3659 34.66 98.3359 34.36 98.2959 34.1C98.2759 33.84 98.2659 33.52 98.2659 33.14C97.7859 33.78 97.1159 34.32 96.2559 34.76C95.4159 35.18 94.3159 35.39 92.9559 35.39ZM94.4559 32.12C95.1159 32.12 95.7059 32 96.2259 31.76C96.7459 31.52 97.1559 31.16 97.4559 30.68C97.7559 30.18 97.9059 29.62 97.9059 29V28.34H94.3059C93.6259 28.34 93.1159 28.52 92.7759 28.88C92.4559 29.24 92.2959 29.65 92.2959 30.11C92.2959 30.71 92.4559 31.2 92.7759 31.58C93.1159 31.94 93.6759 32.12 94.4559 32.12ZM105.408 35V19.1H109.668V21.26C109.828 20.9 110.098 20.52 110.478 20.12C110.858 19.72 111.318 19.39 111.858 19.13C112.398 18.85 112.998 18.71 113.658 18.71C113.998 18.71 114.268 18.73 114.468 18.77C114.668 18.81 114.848 18.85 115.008 18.89V22.88C114.908 22.82 114.678 22.75 114.318 22.67C113.958 22.59 113.548 22.55 113.088 22.55C112.368 22.55 111.778 22.69 111.318 22.97C110.878 23.25 110.548 23.63 110.328 24.11C110.128 24.59 110.028 25.13 110.028 25.73V35H105.408ZM117.098 41V19.1H121.358V21.26C121.778 20.62 122.398 20.04 123.218 19.52C124.058 18.98 125.088 18.71 126.308 18.71C128.548 18.71 130.248 19.37 131.408 20.69C132.568 22.01 133.148 23.98 133.148 26.6V27.2C133.148 29 132.868 30.51 132.308 31.73C131.748 32.93 130.958 33.84 129.938 34.46C128.918 35.08 127.708 35.39 126.308 35.39C125.408 35.39 124.548 35.19 123.728 34.79C122.928 34.37 122.258 33.77 121.718 32.99V41H117.098ZM125.198 31.58C126.118 31.58 126.878 31.21 127.478 30.47C128.098 29.71 128.408 28.62 128.408 27.2V26.6C128.408 25.22 128.108 24.2 127.508 23.54C126.928 22.86 126.158 22.52 125.198 22.52C124.558 22.52 123.968 22.66 123.428 22.94C122.908 23.2 122.488 23.6 122.168 24.14C121.868 24.68 121.718 25.35 121.718 26.15V27.65C121.718 28.47 121.868 29.18 122.168 29.78C122.488 30.36 122.908 30.81 123.428 31.13C123.968 31.43 124.558 31.58 125.198 31.58ZM136.155 35V14H141.555V30.56H150.555V35H136.155ZM153.264 35V14H158.784L164.604 24.65L170.364 14H175.764V35H170.364V22.97L166.014 30.95H163.014L158.664 22.97V35H153.264ZM187.904 35.39C185.944 35.39 184.314 35.13 183.014 34.61C181.714 34.09 180.734 33.36 180.074 32.42C179.434 31.46 179.094 30.32 179.054 29H184.454C184.614 29.76 184.964 30.32 185.504 30.68C186.044 31.02 186.844 31.19 187.904 31.19C189.044 31.19 189.894 31.03 190.454 30.71C191.034 30.39 191.324 29.9 191.324 29.24C191.324 28.7 191.134 28.27 190.754 27.95C190.394 27.63 189.834 27.36 189.074 27.14C188.314 26.92 187.404 26.69 186.344 26.45C184.964 26.13 183.774 25.72 182.774 25.22C181.774 24.7 181.004 24.01 180.464 23.15C179.924 22.29 179.654 21.18 179.654 19.82C179.654 18.5 179.984 17.38 180.644 16.46C181.324 15.54 182.284 14.84 183.524 14.36C184.764 13.86 186.224 13.61 187.904 13.61C189.744 13.61 191.264 13.85 192.464 14.33C193.684 14.81 194.604 15.5 195.224 16.4C195.864 17.3 196.224 18.4 196.304 19.7H190.904C190.784 19.06 190.494 18.59 190.034 18.29C189.574 17.97 188.864 17.81 187.904 17.81C186.844 17.81 186.104 17.98 185.684 18.32C185.264 18.66 185.054 19.1 185.054 19.64C185.054 20.38 185.434 20.92 186.194 21.26C186.974 21.6 188.094 21.91 189.554 22.19C190.634 22.41 191.614 22.68 192.494 23C193.394 23.32 194.154 23.73 194.774 24.23C195.414 24.73 195.904 25.35 196.244 26.09C196.584 26.81 196.754 27.7 196.754 28.76C196.754 30.14 196.404 31.33 195.704 32.33C195.004 33.31 193.994 34.07 192.674 34.61C191.354 35.13 189.764 35.39 187.904 35.39Z" fill="black"/>
</svg>
