<svg width="211" height="43" viewBox="0 0 211 43" fill="none" xmlns="http://www.w3.org/2000/svg">
<path fill-rule="evenodd" clip-rule="evenodd" d="M21.1457 1.07996C32.4075 1.07996 41.537 10.2094 41.537 21.4712C41.537 32.7331 32.4075 41.8626 21.1457 41.8626C9.88389 41.8626 0.754395 32.7331 0.754395 21.4712C0.754395 10.2094 9.88389 1.07996 21.1457 1.07996ZM40.7543 21.4712C40.7543 10.6417 31.9752 1.86258 21.1457 1.86258C20.2721 1.86258 19.412 1.9197 18.5686 2.03041C19.1135 1.98277 19.6649 1.95845 20.2221 1.95845C30.5703 1.95845 38.9592 10.3473 38.9592 20.6955C38.9592 31.0436 30.5703 39.4325 20.2221 39.4325C10.4252 39.4325 2.38439 31.9136 1.55556 22.3315C2.00581 32.7619 10.6043 41.0799 21.1457 41.0799C31.9752 41.0799 40.7543 32.3008 40.7543 21.4712ZM38.1765 20.6955C38.1765 10.7795 30.1381 2.74108 20.2221 2.74108C19.417 2.74108 18.6242 2.79408 17.8471 2.89677C18.3256 2.85651 18.8097 2.83597 19.2986 2.83597C28.7332 2.83597 36.3814 10.4842 36.3814 19.9187C36.3814 29.3533 28.7332 37.0015 19.2986 37.0015C10.378 37.0015 3.05442 30.1638 2.28305 21.4436C2.67524 31.0126 10.5568 38.6499 20.2221 38.6499C30.1381 38.6499 38.1765 30.6114 38.1765 20.6955ZM19.2986 3.6186C28.3009 3.6186 35.5988 10.9164 35.5988 19.9187C35.5988 28.921 28.3009 36.2188 19.2986 36.2188C10.5049 36.2188 3.33757 29.2552 3.01022 20.5415C3.71697 28.4065 10.3263 34.5704 18.3752 34.5704C26.8955 34.5704 33.8027 27.6633 33.8027 19.1429C33.8027 10.6225 26.8955 3.71544 18.3752 3.71544C17.9344 3.71544 17.4979 3.73393 17.0665 3.77016C17.7963 3.67023 18.5414 3.6186 19.2986 3.6186ZM33.02 19.1429C33.02 11.0548 26.4633 4.49807 18.3752 4.49807C17.6918 4.49807 17.0193 4.54487 16.3609 4.63545C16.7204 4.60731 17.0838 4.59298 17.4506 4.59298C25.0574 4.59298 31.2239 10.7594 31.2239 18.3662C31.2239 25.9729 25.0574 32.1394 17.4506 32.1394C10.291 32.1394 4.40731 26.6765 3.7404 19.6916C4.02893 27.5255 10.4707 33.7878 18.3752 33.7878C26.4633 33.7878 33.02 27.2311 33.02 19.1429ZM17.4506 5.3756C24.6251 5.3756 30.4412 11.1917 30.4412 18.3662C30.4412 25.5407 24.6251 31.3568 17.4506 31.3568C10.4175 31.3568 4.68975 25.7676 4.46681 18.7886C5.06894 24.9188 10.2387 29.7084 16.5271 29.7084C23.2203 29.7084 28.6461 24.2825 28.6461 17.5894C28.6461 10.8963 23.2203 5.47049 16.5271 5.47049C16.2202 5.47049 15.9159 5.4819 15.6147 5.50432C16.2145 5.41948 16.8274 5.3756 17.4506 5.3756ZM27.8635 17.5894C27.8635 11.3285 22.788 6.25312 16.5271 6.25312C15.9556 6.25312 15.394 6.29541 14.8452 6.37703C15.0957 6.35909 15.3486 6.34996 15.6037 6.34996C21.3826 6.34996 26.0674 11.0347 26.0674 16.8136C26.0674 22.5926 21.3826 27.2773 15.6037 27.2773C10.1885 27.2773 5.73412 23.1638 5.19479 17.891C5.35468 24.0125 10.3672 28.9258 16.5271 28.9258C22.788 28.9258 27.8635 23.8503 27.8635 17.5894ZM15.6037 7.13259C20.9504 7.13259 25.2847 11.4669 25.2847 16.8136C25.2847 22.1604 20.9504 26.4947 15.6037 26.4947C10.325 26.4947 6.03311 22.27 5.92472 17.0173C6.41235 21.4212 10.1463 24.8463 14.6802 24.8463C19.5455 24.8463 23.4896 20.9022 23.4896 16.0369C23.4896 11.1716 19.5455 7.22748 14.6802 7.22748C14.4941 7.22748 14.3094 7.23325 14.1262 7.24462C14.6079 7.17085 15.1013 7.13259 15.6037 7.13259ZM22.707 16.0369C22.707 11.6038 19.1133 8.01011 14.6802 8.01011C14.235 8.01011 13.7983 8.04635 13.3728 8.11604C13.4996 8.10936 13.6272 8.10598 13.7557 8.10598C17.7073 8.10598 20.9108 11.3094 20.9108 15.2611C20.9108 19.2128 17.7073 22.4163 13.7557 22.4163C10.1018 22.4163 7.08755 19.6773 6.65407 16.1405C6.70957 20.5259 10.2817 24.0637 14.6802 24.0637C19.1133 24.0637 22.707 20.47 22.707 16.0369ZM13.7557 8.8886C17.2751 8.8886 20.1282 11.7416 20.1282 15.2611C20.1282 18.7806 17.2751 21.6336 13.7557 21.6336C10.2363 21.6336 7.38318 18.7806 7.38318 15.2611C7.38318 15.2527 7.3832 15.2442 7.38323 15.2358C7.74965 17.9178 10.0496 19.9843 12.8322 19.9843C15.8697 19.9843 18.3321 17.5219 18.3321 14.4844C18.3321 11.4468 15.8697 8.98449 12.8322 8.98449C12.7635 8.98449 12.6951 8.98574 12.627 8.98824C12.9933 8.92277 13.3705 8.8886 13.7557 8.8886ZM17.5494 14.4844C17.5494 11.8791 15.4375 9.76711 12.8322 9.76711C10.2269 9.76711 8.11495 11.8791 8.11495 14.4844C8.11495 17.0896 10.2269 19.2016 12.8322 19.2016C15.4375 19.2016 17.5494 17.0896 17.5494 14.4844Z" fill="#111111"/>
<path d="M66.2899 34H61.8799L53.6799 9.50002H59.2899L63.2099 23.36C63.4166 24.06 63.6066 24.7667 63.7799 25.48C63.9599 26.1867 64.0966 26.88 64.1899 27.56C64.2833 26.88 64.4099 26.18 64.5699 25.46C64.7366 24.74 64.9466 24.04 65.1999 23.36L70.0699 9.50002H74.4799L79.3399 23.36C79.8533 24.78 80.2166 26.18 80.4299 27.56C80.5166 26.88 80.6366 26.1867 80.7899 25.48C80.9433 24.7667 81.1266 24.06 81.3399 23.36L85.2599 9.50002H90.8599L82.6699 34H78.2599L73.2899 20.17C72.8233 18.89 72.4833 17.55 72.2699 16.15C72.1566 16.8234 72.0166 17.5 71.8499 18.18C71.6899 18.86 71.4933 19.5234 71.2599 20.17L66.2899 34ZM98.0299 34.45C96.3766 34.45 94.8666 34.0267 93.4999 33.18C92.1333 32.3267 91.0466 31.1834 90.2399 29.75C89.4399 28.31 89.0399 26.7167 89.0399 24.97C89.0399 23.6633 89.2733 22.4334 89.7399 21.28C90.2066 20.12 90.8466 19.1034 91.6599 18.23C92.4799 17.3567 93.4299 16.67 94.5099 16.17C95.5966 15.6634 96.7699 15.41 98.0299 15.41C99.6166 15.41 100.853 15.71 101.74 16.31C102.627 16.9034 103.317 17.69 103.81 18.67V15.8H108.5V34H103.91V31.02C103.423 32.0534 102.73 32.8834 101.83 33.51C100.93 34.1367 99.6633 34.45 98.0299 34.45ZM98.7999 30.18C99.8533 30.18 100.757 29.9433 101.51 29.47C102.27 28.99 102.86 28.3533 103.28 27.56C103.7 26.7667 103.91 25.9033 103.91 24.97C103.91 24.01 103.7 23.1334 103.28 22.34C102.86 21.5534 102.27 20.9134 101.51 20.42C100.757 19.9267 99.8533 19.68 98.7999 19.68C97.7999 19.68 96.9199 19.92 96.1599 20.4C95.3999 20.88 94.8099 21.5167 94.3899 22.31C93.9699 23.1033 93.7599 23.9767 93.7599 24.93C93.7599 25.8434 93.9699 26.7034 94.3899 27.51C94.8099 28.31 95.3999 28.9567 96.1599 29.45C96.9199 29.9367 97.7999 30.18 98.7999 30.18ZM116.02 34H111.3V15.8H115.88V19.27C116.187 17.9567 116.807 16.9567 117.74 16.27C118.673 15.5834 119.933 15.2867 121.52 15.38V19.82H120.85C119.497 19.82 118.353 20.2534 117.42 21.12C116.487 21.98 116.02 23.17 116.02 24.69V34ZM127.82 41H123.09V15.8H127.75V18.74C128.237 17.7334 128.93 16.9267 129.83 16.32C130.73 15.7134 131.973 15.41 133.56 15.41C134.82 15.41 135.99 15.6634 137.07 16.17C138.157 16.67 139.11 17.3567 139.93 18.23C140.743 19.1034 141.383 20.12 141.85 21.28C142.317 22.4334 142.55 23.6633 142.55 24.97C142.55 26.7167 142.147 28.31 141.34 29.75C140.54 31.1834 139.463 32.3267 138.11 33.18C136.757 34.0267 135.24 34.45 133.56 34.45C131.993 34.45 130.767 34.1667 129.88 33.6C128.993 33.0267 128.307 32.26 127.82 31.3V41ZM132.79 30.18C133.79 30.18 134.67 29.9367 135.43 29.45C136.19 28.9567 136.78 28.31 137.2 27.51C137.62 26.7034 137.83 25.8434 137.83 24.93C137.83 23.9767 137.62 23.1033 137.2 22.31C136.78 21.5167 136.19 20.88 135.43 20.4C134.67 19.92 133.79 19.68 132.79 19.68C131.763 19.68 130.863 19.9267 130.09 20.42C129.323 20.9134 128.73 21.5534 128.31 22.34C127.89 23.1334 127.68 24.01 127.68 24.97C127.68 25.9033 127.89 26.7667 128.31 27.56C128.73 28.3533 129.323 28.99 130.09 29.47C130.863 29.9433 131.763 30.18 132.79 30.18ZM159.04 34H145V9.50002H149.9V29.59H159.04V34ZM166.46 34H161.66V9.50002H167.75L172.83 20.31C173.41 21.57 173.88 22.61 174.24 23.43C174.607 24.25 174.887 24.9267 175.08 25.46C175.28 26 175.44 26.4667 175.56 26.86C175.673 26.4667 175.823 26 176.01 25.46C176.197 24.9267 176.47 24.25 176.83 23.43C177.197 22.61 177.67 21.57 178.25 20.31L183.36 9.50002H189.24V34H184.45V24.09C184.45 22.97 184.46 22.0167 184.48 21.23C184.507 20.43 184.543 19.7 184.59 19.04C184.637 18.3734 184.707 17.69 184.8 16.99L176.64 34H174.26L166.11 16.99C166.203 17.69 166.273 18.3734 166.32 19.04C166.367 19.7 166.4 20.43 166.42 21.23C166.447 22.0167 166.46 22.97 166.46 24.09V34ZM200.72 34.45C198.78 34.45 197 34.0367 195.38 33.21C193.76 32.3833 192.413 31.0367 191.34 29.17L195.58 26.48C196.207 27.7334 197 28.6467 197.96 29.22C198.913 29.7933 199.927 30.08 201 30.08C202.147 30.08 203.047 29.8233 203.7 29.31C204.353 28.7967 204.68 28.12 204.68 27.28C204.68 26.46 204.423 25.8067 203.91 25.32C203.397 24.8334 202.713 24.4367 201.86 24.13C201.007 23.8233 200.08 23.5434 199.08 23.29C197.187 22.7967 195.68 21.9867 194.56 20.86C193.44 19.7267 192.88 18.2367 192.88 16.39C192.88 14.9234 193.243 13.64 193.97 12.54C194.69 11.4467 195.697 10.5967 196.99 9.99002C198.29 9.38335 199.803 9.08002 201.53 9.08002C203.443 9.08002 205.04 9.47668 206.32 10.27C207.607 11.0634 208.703 12.1834 209.61 13.63L205.41 16.22C204.83 15.26 204.223 14.56 203.59 14.12C202.963 13.6734 202.193 13.45 201.28 13.45C200.3 13.45 199.49 13.6967 198.85 14.19C198.21 14.6767 197.89 15.33 197.89 16.15C197.89 17.0567 198.267 17.7167 199.02 18.13C199.78 18.5367 200.697 18.9034 201.77 19.23C202.497 19.4634 203.307 19.7367 204.2 20.05C205.1 20.3633 205.97 20.7967 206.81 21.35C207.65 21.8967 208.34 22.6234 208.88 23.53C209.413 24.4434 209.68 25.6 209.68 27C209.68 28.4667 209.317 29.76 208.59 30.88C207.87 32.0067 206.847 32.8834 205.52 33.51C204.187 34.1367 202.587 34.45 200.72 34.45Z" fill="#111111"/>
</svg>
