<svg width="199" height="42" viewBox="0 0 199 42" fill="none" xmlns="http://www.w3.org/2000/svg">
<path d="M16.6585 41H15.3818C12.0654 41 10.0701 40.9994 8.5459 40.7159L17.3669 29.0344L16.6585 41Z" fill="#006FEE"/>
<path d="M31.2482 40.7514C29.7502 40.9988 27.7875 41 24.6183 41H23.109L22.397 29.0309L31.2482 40.7514Z" fill="#006FEE"/>
<path d="M39.6714 32.6708C39.607 32.9773 39.5312 33.2655 39.4388 33.5426C38.8336 35.3567 37.7711 36.9522 36.3866 38.1982L26.4399 27.044L39.6714 32.6708Z" fill="#006FEE"/>
<path d="M3.4854 38.0792C2.16393 36.8511 1.14735 35.3 0.561036 33.5426C0.459507 33.2382 0.375209 32.921 0.307129 32.5803L13.3239 27.0458L3.4854 38.0792Z" fill="#006FEE"/>
<path d="M40 25.6183C40 26.7428 39.9968 27.7154 39.9858 28.5692L28.1729 24.006H40V25.6183Z" fill="#006FEE"/>
<path d="M11.5962 24.006L0.0106534 28.4805C0.000706105 27.6481 0 26.704 0 25.6183V24.006H11.5962Z" fill="#006FEE"/>
<path d="M24.6183 1C28.7807 1 30.862 1.00055 32.5426 1.56108C35.7979 2.64713 38.3529 5.20208 39.4389 8.45739C39.9994 10.138 40 12.2193 40 16.3817V21.016H27.5089L36.5181 17.1861L33.8459 15.4123L25.1048 18.7876L29.2081 13.358L26.2571 12.5501L21.7259 17.6282L21.3885 11.9091H18.3825L18.0398 17.6282L13.5121 12.5501L10.5629 13.358L14.6609 18.7859L5.92507 15.4123L3.25284 17.1861L12.2603 21.016H0V16.3817C0 12.2193 0.000553668 10.138 0.56108 8.45739C1.64713 5.20208 4.20208 2.64713 7.45739 1.56108C9.13798 1.00055 11.2193 1 15.3817 1H24.6183Z" fill="#006FEE"/>
<path d="M65.6499 34.45C63.8299 34.45 62.1432 34.1267 60.5899 33.48C59.0432 32.8267 57.6899 31.9167 56.5299 30.75C55.3765 29.5767 54.4799 28.2267 53.8399 26.7C53.1999 25.1733 52.8799 23.5333 52.8799 21.78C52.8799 20.0333 53.1865 18.39 53.7999 16.85C54.4199 15.31 55.2965 13.9567 56.4299 12.79C57.5632 11.6233 58.9099 10.7067 60.4699 10.04C62.0365 9.37335 63.7632 9.04001 65.6499 9.04001C67.6565 9.04001 69.3765 9.35668 70.8099 9.99001C72.2499 10.6167 73.5165 11.5833 74.6099 12.89L71.1499 15.9C69.6765 14.36 67.8432 13.59 65.6499 13.59C64.0832 13.59 62.7232 13.9633 61.5699 14.71C60.4165 15.4567 59.5232 16.45 58.8899 17.69C58.2632 18.9233 57.9499 20.2867 57.9499 21.78C57.9499 23.2733 58.2632 24.6333 58.8899 25.86C59.5232 27.0867 60.4232 28.0667 61.5899 28.8C62.7565 29.54 64.1465 29.91 65.7599 29.91C66.9465 29.91 67.9965 29.71 68.9099 29.31C69.8165 28.91 70.6332 28.3133 71.3599 27.52L74.9299 30.57C73.9965 31.69 72.7532 32.6167 71.1999 33.35C69.6465 34.0833 67.7965 34.45 65.6499 34.45ZM83.8499 34.45C82.1965 34.45 80.6865 34.0267 79.3199 33.18C77.9532 32.3267 76.8665 31.1833 76.0599 29.75C75.2599 28.31 74.8599 26.7167 74.8599 24.97C74.8599 23.6633 75.0899 22.4333 75.5499 21.28C76.0232 20.12 76.6665 19.1033 77.4799 18.23C78.2932 17.3567 79.2432 16.67 80.3299 16.17C81.4166 15.6633 82.5899 15.41 83.8499 15.41C85.4365 15.41 86.6732 15.71 87.5599 16.31C88.4465 16.9033 89.1365 17.69 89.6299 18.67V15.8H94.3199V34H89.7299V31.02C89.2432 32.0533 88.5499 32.8833 87.6499 33.51C86.7499 34.1367 85.4832 34.45 83.8499 34.45ZM84.6199 30.18C85.6732 30.18 86.5766 29.9433 87.3299 29.47C88.0899 28.99 88.6799 28.3533 89.0999 27.56C89.5199 26.7667 89.7299 25.9033 89.7299 24.97C89.7299 24.01 89.5199 23.1333 89.0999 22.34C88.6799 21.5533 88.0899 20.9133 87.3299 20.42C86.5766 19.9267 85.6732 19.68 84.6199 19.68C83.6199 19.68 82.7399 19.92 81.9799 20.4C81.2199 20.88 80.6299 21.5167 80.2099 22.31C79.7899 23.1033 79.5799 23.9767 79.5799 24.93C79.5799 25.8433 79.7899 26.7033 80.2099 27.51C80.6299 28.31 81.2199 28.9567 81.9799 29.45C82.7399 29.9367 83.6199 30.18 84.6199 30.18ZM101.84 41H97.1199V15.8H101.77V18.74C102.263 17.7333 102.957 16.9267 103.85 16.32C104.75 15.7133 105.993 15.41 107.58 15.41C108.84 15.41 110.013 15.6633 111.1 16.17C112.187 16.67 113.137 17.3567 113.95 18.23C114.77 19.1033 115.413 20.12 115.88 21.28C116.347 22.4333 116.58 23.6633 116.58 24.97C116.58 26.7167 116.177 28.31 115.37 29.75C114.563 31.1833 113.483 32.3267 112.13 33.18C110.777 34.0267 109.26 34.45 107.58 34.45C106.02 34.45 104.797 34.1667 103.91 33.6C103.023 33.0267 102.333 32.26 101.84 31.3V41ZM106.81 30.18C107.817 30.18 108.697 29.9367 109.45 29.45C110.21 28.9567 110.8 28.31 111.22 27.51C111.64 26.7033 111.85 25.8433 111.85 24.93C111.85 23.9767 111.64 23.1033 111.22 22.31C110.8 21.5167 110.21 20.88 109.45 20.4C108.697 19.92 107.817 19.68 106.81 19.68C105.783 19.68 104.887 19.9267 104.12 20.42C103.347 20.9133 102.75 21.5533 102.33 22.34C101.91 23.1333 101.7 24.01 101.7 24.97C101.7 25.9033 101.91 26.7667 102.33 27.56C102.75 28.3533 103.347 28.99 104.12 29.47C104.887 29.9433 105.783 30.18 106.81 30.18ZM127.18 34H124.59C122.79 34 121.413 33.5567 120.46 32.67C119.507 31.7833 119.03 30.3467 119.03 28.36V19.82H116.47V15.8H119.03V12.12L123.75 11.63V15.8H127.6V19.82H123.75V28.12C123.75 29.24 124.24 29.8 125.22 29.8H127.18V34ZM135.93 34.42C134.623 34.42 133.447 34.1167 132.4 33.51C131.347 32.9033 130.517 32.0333 129.91 30.9C129.303 29.7667 129 28.4433 129 26.93V15.8H133.73V25.77C133.73 27.3367 134.043 28.48 134.67 29.2C135.303 29.9267 136.203 30.29 137.37 30.29C138.37 30.29 139.25 29.9267 140.01 29.2C140.77 28.48 141.15 27.3367 141.15 25.77V15.8H145.87V34H141.29V31.27C140.843 32.3167 140.193 33.1033 139.34 33.63C138.493 34.1567 137.357 34.42 135.93 34.42ZM153.4 34H148.67V15.8H153.26V19.27C153.56 17.9567 154.177 16.9567 155.11 16.27C156.043 15.5833 157.303 15.2867 158.89 15.38V19.82H158.23C156.877 19.82 155.733 20.2533 154.8 21.12C153.867 21.98 153.4 23.17 153.4 24.69V34ZM168.31 34.45C166.443 34.45 164.797 34.02 163.37 33.16C161.95 32.2933 160.847 31.1433 160.06 29.71C159.28 28.2767 158.89 26.6833 158.89 24.93C158.89 23.1833 159.3 21.58 160.12 20.12C160.933 18.66 162.047 17.5 163.46 16.64C164.873 15.7733 166.49 15.34 168.31 15.34C170.13 15.34 171.733 15.7733 173.12 16.64C174.507 17.5 175.59 18.66 176.37 20.12C177.157 21.58 177.55 23.1833 177.55 24.93C177.55 25.19 177.537 25.46 177.51 25.74C177.49 26.02 177.457 26.31 177.41 26.61H163.79C164.05 27.69 164.57 28.5667 165.35 29.24C166.13 29.9133 167.117 30.25 168.31 30.25C169.337 30.25 170.227 30.0167 170.98 29.55C171.74 29.09 172.33 28.5067 172.75 27.8L176.43 30.57C175.703 31.7167 174.617 32.65 173.17 33.37C171.723 34.09 170.103 34.45 168.31 34.45ZM168.24 19.41C167.12 19.41 166.163 19.7467 165.37 20.42C164.577 21.0933 164.05 21.98 163.79 23.08H172.79C172.53 22.0733 171.997 21.21 171.19 20.49C170.39 19.77 169.407 19.41 168.24 19.41ZM187.66 34.45C186.007 34.45 184.497 34.0267 183.13 33.18C181.763 32.3267 180.677 31.1833 179.87 29.75C179.063 28.31 178.66 26.7167 178.66 24.97C178.66 23.6633 178.897 22.4333 179.37 21.28C179.83 20.12 180.47 19.1033 181.29 18.23C182.11 17.3567 183.06 16.67 184.14 16.17C185.227 15.6633 186.4 15.41 187.66 15.41C189.22 15.41 190.447 15.7033 191.34 16.29C192.22 16.87 192.907 17.64 193.4 18.6V8.45001H198.13V34H193.54V31.02C193.053 32.0533 192.36 32.8833 191.46 33.51C190.56 34.1367 189.293 34.45 187.66 34.45ZM188.43 30.18C189.477 30.18 190.38 29.9433 191.14 29.47C191.9 28.99 192.49 28.3533 192.91 27.56C193.33 26.7667 193.54 25.9033 193.54 24.97C193.54 24.01 193.33 23.1333 192.91 22.34C192.49 21.5533 191.9 20.9133 191.14 20.42C190.38 19.9267 189.477 19.68 188.43 19.68C187.43 19.68 186.55 19.92 185.79 20.4C185.03 20.88 184.44 21.5167 184.02 22.31C183.6 23.1033 183.39 23.9767 183.39 24.93C183.39 25.8433 183.6 26.7033 184.02 27.51C184.44 28.31 185.03 28.9567 185.79 29.45C186.55 29.9367 187.43 30.18 188.43 30.18Z" fill="#111111"/>
</svg>
