<svg width="204" height="42" viewBox="0 0 204 42" fill="none" xmlns="http://www.w3.org/2000/svg">
<path d="M16.6585 41H15.3818C12.0654 41 10.0701 40.9994 8.5459 40.7159L17.3669 29.0344L16.6585 41Z" fill="#006FEE"/>
<path d="M31.2482 40.7514C29.7502 40.9988 27.7875 41 24.6183 41H23.109L22.397 29.0309L31.2482 40.7514Z" fill="#006FEE"/>
<path d="M39.6714 32.6708C39.607 32.9773 39.5312 33.2655 39.4388 33.5426C38.8336 35.3567 37.7711 36.9522 36.3866 38.1982L26.4399 27.044L39.6714 32.6708Z" fill="#006FEE"/>
<path d="M3.4854 38.0792C2.16393 36.8511 1.14735 35.3 0.561036 33.5426C0.459507 33.2382 0.375209 32.921 0.307129 32.5803L13.3239 27.0458L3.4854 38.0792Z" fill="#006FEE"/>
<path d="M40 25.6183C40 26.7428 39.9968 27.7154 39.9858 28.5692L28.1729 24.006H40V25.6183Z" fill="#006FEE"/>
<path d="M11.5962 24.006L0.0106534 28.4805C0.000706105 27.6481 0 26.704 0 25.6183V24.006H11.5962Z" fill="#006FEE"/>
<path d="M24.6183 1C28.7807 1 30.862 1.00055 32.5426 1.56108C35.7979 2.64713 38.3529 5.20208 39.4389 8.45739C39.9994 10.138 40 12.2193 40 16.3817V21.016H27.5089L36.5181 17.1861L33.8459 15.4123L25.1048 18.7876L29.2081 13.358L26.2571 12.5501L21.7259 17.6282L21.3885 11.9091H18.3825L18.0398 17.6282L13.5121 12.5501L10.5629 13.358L14.6609 18.7859L5.92507 15.4123L3.25284 17.1861L12.2603 21.016H0V16.3817C0 12.2193 0.000553668 10.138 0.56108 8.45739C1.64713 5.20208 4.20208 2.64713 7.45739 1.56108C9.13798 1.00055 11.2193 1 15.3817 1H24.6183Z" fill="#006FEE"/>
<path d="M65.3301 33.94C62.9168 33.94 60.8101 33.44 59.0101 32.44C57.2168 31.4333 55.8234 30.0133 54.8301 28.18C53.8368 26.34 53.3401 24.1967 53.3401 21.75C53.3401 19.2567 53.8368 17.0967 54.8301 15.27C55.8234 13.4433 57.2168 12.03 59.0101 11.03C60.8101 10.0233 62.9168 9.52 65.3301 9.52C67.2768 9.52 69.0034 9.85667 70.5101 10.53C72.0168 11.2033 73.2501 12.16 74.2101 13.4C75.1701 14.6467 75.7768 16.1367 76.0301 17.87H70.9001C70.6868 16.6033 70.0834 15.6267 69.0901 14.94C68.0968 14.2467 66.8434 13.9 65.3301 13.9C63.1501 13.9 61.4301 14.59 60.1701 15.97C58.9034 17.35 58.2701 19.2767 58.2701 21.75C58.2701 24.1967 58.9034 26.1167 60.1701 27.51C61.4301 28.8967 63.1501 29.59 65.3301 29.59C66.8434 29.59 68.0968 29.24 69.0901 28.54C70.0834 27.84 70.6868 26.86 70.9001 25.6H76.0301C75.7768 27.3267 75.1701 28.8167 74.2101 30.07C73.2501 31.3233 72.0168 32.2833 70.5101 32.95C69.0034 33.61 67.2768 33.94 65.3301 33.94ZM82.9801 33.82C80.9134 33.82 79.2968 33.32 78.1301 32.32C76.9634 31.32 76.3801 30.0033 76.3801 28.37C76.3801 26.6367 76.9834 25.3033 78.1901 24.37C79.3968 23.4367 81.1268 22.97 83.3801 22.97H88.4001V22.3C88.4001 20.4133 87.2734 19.47 85.0201 19.47C83.0534 19.47 81.8668 20.15 81.4601 21.51H76.6501C77.0368 19.59 77.9401 18.1333 79.3601 17.14C80.7801 16.1467 82.6668 15.65 85.0201 15.65C87.6201 15.65 89.6068 16.2333 90.9801 17.4C92.3534 18.5667 93.0401 20.2667 93.0401 22.5V28.72H95.3101V33.5H90.4101V30.64H89.1901C88.5834 31.6533 87.7768 32.4367 86.7701 32.99C85.7568 33.5433 84.4934 33.82 82.9801 33.82ZM83.7001 30.15C84.6201 30.15 85.4301 29.9833 86.1301 29.65C86.8234 29.3167 87.3768 28.8733 87.7901 28.32C88.1968 27.7667 88.4001 27.14 88.4001 26.44V26.18H83.6201C81.8668 26.18 80.9901 26.83 80.9901 28.13C80.9901 28.7767 81.2334 29.2733 81.7201 29.62C82.2068 29.9733 82.8668 30.15 83.7001 30.15ZM102.49 40.5H97.6501V20.78H95.2501V16H100.15V18.86H101.38C102 17.8467 102.83 17.06 103.87 16.5C104.91 15.9333 106.17 15.65 107.65 15.65C109.457 15.65 110.983 16.03 112.23 16.79C113.477 17.5433 114.42 18.6033 115.06 19.97C115.7 21.33 116.02 22.9233 116.02 24.75C116.02 26.5767 115.71 28.1767 115.09 29.55C114.463 30.9167 113.56 31.9767 112.38 32.73C111.193 33.4767 109.753 33.85 108.06 33.85C106.773 33.85 105.673 33.6133 104.76 33.14C103.847 32.66 103.127 31.9833 102.6 31.11H102.49V40.5ZM106.75 29.65C108.223 29.65 109.33 29.2133 110.07 28.34C110.81 27.46 111.18 26.2633 111.18 24.75C111.18 23.2367 110.81 22.04 110.07 21.16C109.33 20.2867 108.223 19.85 106.75 19.85C105.443 19.85 104.407 20.2133 103.64 20.94C102.873 21.6733 102.49 22.68 102.49 23.96V25.54C102.49 26.82 102.873 27.8267 103.64 28.56C104.407 29.2867 105.443 29.65 106.75 29.65ZM128.71 33.5H123.4C122.153 33.5 121.187 33.1833 120.5 32.55C119.807 31.9167 119.46 30.95 119.46 29.65V19.79H116.46V16H119.52V10.75H124.25V16H128.3V19.79H124.3V29.71H128.71V33.5ZM137.69 33.82C135.263 33.82 133.397 33.18 132.09 31.9C130.79 30.6133 130.14 28.8633 130.14 26.65V16H134.98V25.71C134.98 26.9767 135.307 27.9267 135.96 28.56C136.607 29.1867 137.583 29.5 138.89 29.5C140.23 29.5 141.263 29.16 141.99 28.48C142.723 27.8 143.09 26.83 143.09 25.57V16H147.93V28.72H150.32V33.5H145.42V30.64H144.2C143.5 31.6733 142.647 32.46 141.64 33C140.64 33.5467 139.323 33.82 137.69 33.82ZM157.67 33.5H152.92V20.78H150.52V16H155.42V19.44H156.65C157.117 18.2133 157.857 17.3 158.87 16.7C159.877 16.1 161.013 15.8 162.28 15.8H163.77V20H162.07C160.557 20 159.447 20.4267 158.74 21.28C158.027 22.1333 157.67 23.26 157.67 24.66V33.5ZM172.81 33.85C170.923 33.85 169.28 33.4767 167.88 32.73C166.48 31.9767 165.4 30.9167 164.64 29.55C163.88 28.1767 163.5 26.5567 163.5 24.69C163.5 22.8233 163.87 21.2133 164.61 19.86C165.35 18.5133 166.407 17.4733 167.78 16.74C169.147 16.0133 170.763 15.65 172.63 15.65C174.463 15.65 176.033 16 177.34 16.7C178.653 17.4 179.66 18.4 180.36 19.7C181.06 21.0067 181.41 22.5633 181.41 24.37V26H168.14C168.333 27.3067 168.83 28.3 169.63 28.98C170.43 29.66 171.48 30 172.78 30C173.813 30 174.63 29.8267 175.23 29.48C175.83 29.1267 176.257 28.59 176.51 27.87H181.35C180.963 29.7367 180.023 31.2 178.53 32.26C177.03 33.32 175.123 33.85 172.81 33.85ZM168.26 22.8H176.78C176.62 21.6867 176.19 20.8533 175.49 20.3C174.79 19.7467 173.847 19.47 172.66 19.47C171.473 19.47 170.507 19.7533 169.76 20.32C169.013 20.88 168.513 21.7067 168.26 22.8ZM190.66 33.85C188.867 33.85 187.343 33.47 186.09 32.71C184.837 31.95 183.89 30.8867 183.25 29.52C182.61 28.1467 182.29 26.5567 182.29 24.75C182.29 22.9233 182.6 21.3233 183.22 19.95C183.84 18.5833 184.75 17.5233 185.95 16.77C187.143 16.0233 188.577 15.65 190.25 15.65C191.53 15.65 192.633 15.8867 193.56 16.36C194.487 16.84 195.2 17.5167 195.7 18.39H195.82V9H200.66V28.72H203.05V33.5H198.15V30.64H196.93C196.31 31.6533 195.48 32.44 194.44 33C193.4 33.5667 192.14 33.85 190.66 33.85ZM191.56 29.65C192.867 29.65 193.903 29.2867 194.67 28.56C195.437 27.8267 195.82 26.82 195.82 25.54V23.96C195.82 22.68 195.437 21.6733 194.67 20.94C193.903 20.2133 192.867 19.85 191.56 19.85C190.087 19.85 188.98 20.2867 188.24 21.16C187.5 22.04 187.13 23.2367 187.13 24.75C187.13 26.2633 187.5 27.46 188.24 28.34C188.98 29.2133 190.087 29.65 191.56 29.65Z" fill="#111111"/>
</svg>
