<svg width="184" height="43" viewBox="0 0 184 43" fill="none" xmlns="http://www.w3.org/2000/svg">
<path d="M20.9053 1.80994C9.85957 1.80994 0.905273 10.7642 0.905273 21.81C11.951 21.81 20.9053 12.8557 20.9053 1.80994Z" fill="#45D2B0"/>
<path d="M20.9053 41.81C31.951 41.81 40.9053 32.8557 40.9053 21.81C29.8596 21.81 20.9053 30.7643 20.9053 41.81Z" fill="#45D2B0"/>
<path d="M20.9053 1.80994C31.951 1.80994 40.9053 10.7642 40.9053 21.81C29.8596 21.81 20.9053 12.8557 20.9053 1.80994Z" fill="#23216E"/>
<path d="M20.9053 41.81C9.85957 41.81 0.905272 32.8557 0.905273 21.81C11.951 21.81 20.9053 30.7643 20.9053 41.81Z" fill="#23216E"/>
<path d="M60.41 34H55.48V10.38H66.71C69.37 10.38 71.44 11.05 72.92 12.39C74.4 13.73 75.14 15.5666 75.14 17.9C75.14 20.2133 74.4 22.0466 72.92 23.4C71.44 24.7533 69.37 25.43 66.71 25.43H60.41V34ZM60.41 14.66V21.14H66.42C67.64 21.14 68.5733 20.8533 69.22 20.28C69.86 19.7066 70.18 18.9133 70.18 17.9C70.18 16.8666 69.86 16.07 69.22 15.51C68.5733 14.9433 67.64 14.66 66.42 14.66H60.41ZM84.38 34.35C82.4733 34.35 80.8166 33.9766 79.41 33.23C78.0033 32.4766 76.91 31.42 76.13 30.06C75.35 28.7 74.96 27.0866 74.96 25.22C74.96 23.3733 75.3433 21.77 76.11 20.41C76.8833 19.05 77.98 18 79.4 17.26C80.8133 16.52 82.4833 16.15 84.41 16.15C86.3166 16.15 87.97 16.52 89.37 17.26C90.77 18 91.85 19.05 92.61 20.41C93.37 21.77 93.75 23.3833 93.75 25.25C93.75 27.0966 93.37 28.7066 92.61 30.08C91.85 31.4466 90.7666 32.5 89.36 33.24C87.9466 33.98 86.2866 34.35 84.38 34.35ZM84.38 30.15C85.84 30.15 86.96 29.7066 87.74 28.82C88.5133 27.94 88.9 26.74 88.9 25.22C88.9 23.7066 88.5133 22.5166 87.74 21.65C86.96 20.7833 85.84 20.35 84.38 20.35C82.9066 20.35 81.7766 20.7833 80.99 21.65C80.1966 22.5166 79.8 23.7066 79.8 25.22C79.8 26.74 80.1966 27.94 80.99 28.82C81.7766 29.7066 82.9066 30.15 84.38 30.15ZM100.51 34H95.67V9.49997H100.51V34ZM109.06 34.32C107 34.32 105.387 33.82 104.22 32.82C103.053 31.82 102.47 30.5033 102.47 28.87C102.47 27.1366 103.07 25.8033 104.27 24.87C105.477 23.9366 107.21 23.47 109.47 23.47H114.48V22.8C114.48 20.9133 113.353 19.97 111.1 19.97C109.133 19.97 107.947 20.65 107.54 22.01H102.73C103.117 20.09 104.02 18.6333 105.44 17.64C106.86 16.6466 108.747 16.15 111.1 16.15C113.707 16.15 115.693 16.7333 117.06 17.9C118.433 19.0666 119.12 20.7666 119.12 23V29.22H121.4V34H116.5V31.14H115.27C114.67 32.1533 113.863 32.9366 112.85 33.49C111.837 34.0433 110.573 34.32 109.06 34.32ZM109.79 30.65C110.703 30.65 111.51 30.4833 112.21 30.15C112.91 29.8166 113.463 29.3733 113.87 28.82C114.277 28.2666 114.48 27.64 114.48 26.94V26.68H109.7C107.953 26.68 107.08 27.33 107.08 28.63C107.08 29.2766 107.32 29.7733 107.8 30.12C108.287 30.4733 108.95 30.65 109.79 30.65ZM128.75 34H123.99V21.28H121.6V16.5H126.5V19.94H127.73C128.197 18.7133 128.933 17.8 129.94 17.2C130.953 16.6 132.09 16.3 133.35 16.3H134.84V20.5H133.15C131.637 20.5 130.523 20.9266 129.81 21.78C129.103 22.6333 128.75 23.76 128.75 25.16V34ZM144 34.35C142.093 34.35 140.437 33.9766 139.03 33.23C137.617 32.4766 136.523 31.42 135.75 30.06C134.97 28.7 134.58 27.0866 134.58 25.22C134.58 23.3733 134.963 21.77 135.73 20.41C136.497 19.05 137.59 18 139.01 17.26C140.43 16.52 142.103 16.15 144.03 16.15C145.937 16.15 147.59 16.52 148.99 17.26C150.39 18 151.47 19.05 152.23 20.41C152.983 21.77 153.36 23.3833 153.36 25.25C153.36 27.0966 152.983 28.7066 152.23 30.08C151.47 31.4466 150.383 32.5 148.97 33.24C147.563 33.98 145.907 34.35 144 34.35ZM144 30.15C145.46 30.15 146.577 29.7066 147.35 28.82C148.13 27.94 148.52 26.74 148.52 25.22C148.52 23.7066 148.13 22.5166 147.35 21.65C146.577 20.7833 145.46 20.35 144 20.35C142.52 20.35 141.387 20.7833 140.6 21.65C139.813 22.5166 139.42 23.7066 139.42 25.22C139.42 26.74 139.813 27.94 140.6 28.82C141.387 29.7066 142.52 30.15 144 30.15ZM160.13 34H155.29V16.5H160.13V34ZM157.71 14.78C156.97 14.78 156.343 14.5233 155.83 14.01C155.31 13.49 155.05 12.8633 155.05 12.13C155.05 11.39 155.31 10.76 155.83 10.24C156.343 9.72664 156.97 9.46997 157.71 9.46997C158.45 9.46997 159.077 9.72664 159.59 10.24C160.103 10.76 160.36 11.39 160.36 12.13C160.36 12.8633 160.103 13.49 159.59 14.01C159.077 14.5233 158.45 14.78 157.71 14.78ZM170.43 34.35C168.637 34.35 167.113 33.97 165.86 33.21C164.607 32.45 163.66 31.3866 163.02 30.02C162.373 28.6466 162.05 27.0566 162.05 25.25C162.05 23.4233 162.363 21.8233 162.99 20.45C163.61 19.0833 164.517 18.0233 165.71 17.27C166.91 16.5233 168.347 16.15 170.02 16.15C171.3 16.15 172.403 16.3866 173.33 16.86C174.25 17.34 174.963 18.0166 175.47 18.89H175.59V9.49997H180.43V29.22H182.82V34H177.92V31.14H176.7C176.073 32.1533 175.24 32.94 174.2 33.5C173.16 34.0666 171.903 34.35 170.43 34.35ZM171.33 30.15C172.63 30.15 173.667 29.7866 174.44 29.06C175.207 28.3266 175.59 27.32 175.59 26.04V24.46C175.59 23.18 175.207 22.1733 174.44 21.44C173.667 20.7133 172.63 20.35 171.33 20.35C169.85 20.35 168.74 20.7866 168 21.66C167.267 22.5333 166.9 23.73 166.9 25.25C166.9 26.7633 167.267 27.96 168 28.84C168.74 29.7133 169.85 30.15 171.33 30.15Z" fill="#111111"/>
</svg>
