<svg width="180" height="48" viewBox="0 0 180 48" fill="none" xmlns="http://www.w3.org/2000/svg">
<path opacity="0.4" d="M45.7999 21.2369C43.7211 23.3157 40.3508 23.3157 38.272 21.2369C36.1932 19.1582 36.1932 15.7878 38.272 13.709C40.3508 11.6302 43.7211 11.6302 45.7999 13.709C47.8787 15.7878 47.8787 19.1582 45.7999 21.2369Z" fill="#155EEF"/>
<path opacity="0.6" d="M45.7954 21.2361C43.7166 23.3148 40.3462 23.3148 38.2674 21.2361L30.8331 13.8018C28.7543 11.723 25.384 11.723 23.3052 13.8018C21.2264 15.8806 21.2264 19.2509 23.3052 21.3297L30.7395 28.764C32.8183 30.8428 36.1886 30.8428 38.2674 28.764L45.7954 21.2361Z" fill="#155EEF"/>
<path d="M38.2671 28.7652C36.1883 30.844 32.8179 30.844 30.7391 28.7652L16.3106 14.3366C13.5388 11.5649 9.04501 11.5649 6.27329 14.3366L0 20.6099C2.07879 18.5311 5.44916 18.5311 7.52795 20.6099L23.2112 36.2931C25.29 38.3719 28.6603 38.3719 30.7391 36.2931L38.2671 28.7652Z" fill="#155EEF"/>
<path d="M63.2 33.5L58.494 15.3H63.46L65.93 26.584L68.79 15.3H73.21L76.408 26.636L79.06 15.3H83.48L78.8 33.5H74.12L70.87 21.748L67.88 33.5H63.2ZM88.2951 33.838C87.3071 33.838 86.4577 33.6473 85.7471 33.266C85.0537 32.8847 84.5251 32.3647 84.1611 31.706C83.7971 31.03 83.6151 30.2847 83.6151 29.47C83.6151 28.1007 84.0311 27.052 84.8631 26.324C85.7124 25.596 86.9864 25.232 88.6851 25.232H92.5851V24.66C92.5851 23.828 92.3857 23.256 91.9871 22.944C91.6057 22.632 91.0684 22.476 90.3751 22.476C89.7164 22.476 89.2311 22.58 88.9191 22.788C88.6071 22.9787 88.4337 23.2993 88.3991 23.75H84.3951C84.4471 22.918 84.7071 22.1727 85.1751 21.514C85.6604 20.8553 86.3451 20.3353 87.2291 19.954C88.1304 19.5727 89.2224 19.382 90.5051 19.382C91.7184 19.382 92.7844 19.564 93.7031 19.928C94.6217 20.292 95.3324 20.8813 95.8351 21.696C96.3551 22.4933 96.6151 23.568 96.6151 24.92V29.99C96.6151 30.718 96.6324 31.3593 96.6671 31.914C96.7017 32.4513 96.7537 32.98 96.8231 33.5H93.0011C92.9837 33.2053 92.9577 32.9453 92.9231 32.72C92.9057 32.4947 92.8971 32.2173 92.8971 31.888C92.4811 32.4427 91.9004 32.9107 91.1551 33.292C90.4271 33.656 89.4737 33.838 88.2951 33.838ZM89.5951 31.004C90.1671 31.004 90.6784 30.9 91.1291 30.692C91.5797 30.484 91.9351 30.172 92.1951 29.756C92.4551 29.3227 92.5851 28.8373 92.5851 28.3V27.728H89.4651C88.8757 27.728 88.4337 27.884 88.1391 28.196C87.8617 28.508 87.7231 28.8633 87.7231 29.262C87.7231 29.782 87.8617 30.2067 88.1391 30.536C88.4337 30.848 88.9191 31.004 89.5951 31.004ZM99.0871 33.5V19.72H102.779V21.592C102.918 21.28 103.152 20.9507 103.481 20.604C103.81 20.2573 104.209 19.9713 104.677 19.746C105.145 19.5033 105.665 19.382 106.237 19.382C106.532 19.382 106.766 19.3993 106.939 19.434C107.112 19.4687 107.268 19.5033 107.407 19.538V22.996C107.32 22.944 107.121 22.8833 106.809 22.814C106.497 22.7447 106.142 22.71 105.743 22.71C105.119 22.71 104.608 22.8313 104.209 23.074C103.828 23.3167 103.542 23.646 103.351 24.062C103.178 24.478 103.091 24.946 103.091 25.466V33.5H99.0871ZM109.218 38.7V19.72H112.91V21.592C113.274 21.0373 113.811 20.5347 114.522 20.084C115.25 19.616 116.143 19.382 117.2 19.382C119.141 19.382 120.615 19.954 121.62 21.098C122.625 22.242 123.128 23.9493 123.128 26.22V26.74C123.128 28.3 122.885 29.6087 122.4 30.666C121.915 31.706 121.23 32.4947 120.346 33.032C119.462 33.5693 118.413 33.838 117.2 33.838C116.42 33.838 115.675 33.6647 114.964 33.318C114.271 32.954 113.69 32.434 113.222 31.758V38.7H109.218ZM116.238 30.536C117.035 30.536 117.694 30.2153 118.214 29.574C118.751 28.9153 119.02 27.9707 119.02 26.74V26.22C119.02 25.024 118.76 24.14 118.24 23.568C117.737 22.9787 117.07 22.684 116.238 22.684C115.683 22.684 115.172 22.8053 114.704 23.048C114.253 23.2733 113.889 23.62 113.612 24.088C113.352 24.556 113.222 25.1367 113.222 25.83V27.13C113.222 27.8407 113.352 28.456 113.612 28.976C113.889 29.4787 114.253 29.8687 114.704 30.146C115.172 30.406 115.683 30.536 116.238 30.536ZM125.734 33.5V15.3H130.414V29.652H138.214V33.5H125.734ZM140.562 33.5V15.3H145.346L150.39 24.53L155.382 15.3H160.062V33.5H155.382V23.074L151.612 29.99H149.012L145.242 23.074V33.5H140.562ZM170.583 33.838C168.884 33.838 167.472 33.6127 166.345 33.162C165.218 32.7113 164.369 32.0787 163.797 31.264C163.242 30.432 162.948 29.444 162.913 28.3H167.593C167.732 28.9587 168.035 29.444 168.503 29.756C168.971 30.0507 169.664 30.198 170.583 30.198C171.571 30.198 172.308 30.0593 172.793 29.782C173.296 29.5047 173.547 29.08 173.547 28.508C173.547 28.04 173.382 27.6673 173.053 27.39C172.741 27.1127 172.256 26.8787 171.597 26.688C170.938 26.4973 170.15 26.298 169.231 26.09C168.035 25.8127 167.004 25.4573 166.137 25.024C165.27 24.5733 164.603 23.9753 164.135 23.23C163.667 22.4847 163.433 21.5227 163.433 20.344C163.433 19.2 163.719 18.2293 164.291 17.432C164.88 16.6347 165.712 16.028 166.787 15.612C167.862 15.1787 169.127 14.962 170.583 14.962C172.178 14.962 173.495 15.17 174.535 15.586C175.592 16.002 176.39 16.6 176.927 17.38C177.482 18.16 177.794 19.1133 177.863 20.24H173.183C173.079 19.6853 172.828 19.278 172.429 19.018C172.03 18.7407 171.415 18.602 170.583 18.602C169.664 18.602 169.023 18.7493 168.659 19.044C168.295 19.3387 168.113 19.72 168.113 20.188C168.113 20.8293 168.442 21.2973 169.101 21.592C169.777 21.8867 170.748 22.1553 172.013 22.398C172.949 22.5887 173.798 22.8227 174.561 23.1C175.341 23.3773 176 23.7327 176.537 24.166C177.092 24.5993 177.516 25.1367 177.811 25.778C178.106 26.402 178.253 27.1733 178.253 28.092C178.253 29.288 177.95 30.3193 177.343 31.186C176.736 32.0353 175.861 32.694 174.717 33.162C173.573 33.6127 172.195 33.838 170.583 33.838Z" fill="black"/>
</svg>
