<svg width="47" height="47" viewBox="0 0 47 47" fill="none" xmlns="http://www.w3.org/2000/svg">
<path d="M10.8462 23.7916C10.8462 17.1183 16.2418 11.7083 22.8974 11.7083C29.5532 11.7083 34.9487 17.1183 34.9487 23.7916H45.7949C45.7949 11.1121 35.5433 0.833313 22.8974 0.833313C10.2515 0.833313 1.10872e-06 11.1121 0 23.7916C-1.10872e-06 36.4712 10.2515 46.75 22.8974 46.75V35.875C16.2418 35.875 10.8462 30.4652 10.8462 23.7916Z" fill="#006FEE"/>
<path opacity="0.5" d="M34.9487 23.7916C34.9487 30.465 40.3443 35.875 47 35.875V46.75C34.3541 46.75 24.1025 36.4712 24.1025 23.7916H34.9487Z" fill="#155EEF"/>
</svg>
