<svg width="199" height="36" viewBox="0 0 199 36" fill="none" xmlns="http://www.w3.org/2000/svg">
<path d="M15.4992 1H36.5808L21.0816 23.9729H0L15.4992 1Z" fill="#262626"/>
<path d="M16.4224 26.102L10.4192 35H32.5008L48 12.0271H31.7024L22.2064 26.102H16.4224Z" fill="#A3A3A3"/>
<path d="M67.41 30.5H62.48V6.88H74.7C77.2266 6.88 79.2066 7.44667 80.64 8.58C82.0666 9.72 82.78 11.29 82.78 13.29C82.78 14.5567 82.4833 15.6367 81.89 16.53C81.2966 17.4233 80.4666 18.0533 79.4 18.42V18.57C80.4666 18.57 81.2966 18.8567 81.89 19.43C82.4833 20.0033 82.78 20.8633 82.78 22.01V30.5H77.82V21.52H67.41V30.5ZM67.41 11.16V17.23H74.38C75.5066 17.23 76.3766 16.9667 76.99 16.44C77.6033 15.9133 77.91 15.1667 77.91 14.2C77.91 13.2267 77.6033 12.4767 76.99 11.95C76.3766 11.4233 75.5066 11.16 74.38 11.16H67.41ZM91.44 30.82C89.38 30.82 87.7666 30.32 86.6 29.32C85.4333 28.32 84.85 27.0033 84.85 25.37C84.85 23.6367 85.4533 22.3033 86.66 21.37C87.8666 20.4367 89.5966 19.97 91.85 19.97H96.87V19.3C96.87 17.4133 95.74 16.47 93.48 16.47C91.52 16.47 90.3333 17.15 89.92 18.51H85.11C85.5033 16.59 86.41 15.1333 87.83 14.14C89.2433 13.1467 91.1266 12.65 93.48 12.65C96.0866 12.65 98.0766 13.2333 99.45 14.4C100.817 15.5667 101.5 17.2667 101.5 19.5V25.72H103.78V30.5H98.88V27.64H97.65C97.05 28.6533 96.2433 29.4367 95.23 29.99C94.2233 30.5433 92.96 30.82 91.44 30.82ZM92.17 27.15C93.0833 27.15 93.89 26.9833 94.59 26.65C95.29 26.3167 95.8433 25.8733 96.25 25.32C96.6633 24.7667 96.87 24.14 96.87 23.44V23.18H92.08C90.3333 23.18 89.46 23.83 89.46 25.13C89.46 25.7767 89.7033 26.2733 90.19 26.62C90.6766 26.9733 91.3366 27.15 92.17 27.15ZM110.95 30.5H106.11V17.78H103.72V13H108.62V15.86H109.85C110.53 14.8467 111.383 14.0633 112.41 13.51C113.443 12.9567 114.727 12.68 116.26 12.68C118.693 12.68 120.577 13.3467 121.91 14.68C123.237 16.0067 123.9 17.79 123.9 20.03V30.5H119.06V20.93C119.06 19.65 118.717 18.6733 118.03 18C117.337 17.3333 116.33 17 115.01 17C113.683 17 112.677 17.3333 111.99 18C111.297 18.6733 110.95 19.65 110.95 20.93V30.5ZM133.97 30.85C132.177 30.85 130.653 30.47 129.4 29.71C128.147 28.95 127.2 27.8867 126.56 26.52C125.92 25.1467 125.6 23.5567 125.6 21.75C125.6 19.9233 125.91 18.3233 126.53 16.95C127.15 15.5833 128.06 14.5233 129.26 13.77C130.453 13.0233 131.887 12.65 133.56 12.65C134.84 12.65 135.943 12.8867 136.87 13.36C137.79 13.84 138.503 14.5167 139.01 15.39H139.13V6H143.97V25.72H146.36V30.5H141.46V27.64H140.24C139.613 28.6533 138.78 29.44 137.74 30C136.7 30.5667 135.443 30.85 133.97 30.85ZM134.87 26.65C136.177 26.65 137.213 26.2867 137.98 25.56C138.747 24.8267 139.13 23.82 139.13 22.54V20.96C139.13 19.68 138.747 18.6733 137.98 17.94C137.213 17.2133 136.177 16.85 134.87 16.85C133.39 16.85 132.283 17.2867 131.55 18.16C130.81 19.0333 130.44 20.23 130.44 21.75C130.44 23.2633 130.81 24.46 131.55 25.34C132.283 26.2133 133.39 26.65 134.87 26.65ZM156.48 30.85C154.58 30.85 152.923 30.4767 151.51 29.73C150.103 28.9767 149.01 27.92 148.23 26.56C147.45 25.2 147.06 23.5867 147.06 21.72C147.06 19.8733 147.443 18.27 148.21 16.91C148.983 15.55 150.08 14.5 151.5 13.76C152.92 13.02 154.59 12.65 156.51 12.65C158.417 12.65 160.07 13.02 161.47 13.76C162.87 14.5 163.95 15.55 164.71 16.91C165.47 18.27 165.85 19.8833 165.85 21.75C165.85 23.5967 165.47 25.2067 164.71 26.58C163.95 27.9467 162.867 29 161.46 29.74C160.047 30.48 158.387 30.85 156.48 30.85ZM156.48 26.65C157.94 26.65 159.06 26.2067 159.84 25.32C160.613 24.44 161 23.24 161 21.72C161 20.2067 160.613 19.0167 159.84 18.15C159.06 17.2833 157.94 16.85 156.48 16.85C155.007 16.85 153.877 17.2833 153.09 18.15C152.297 19.0167 151.9 20.2067 151.9 21.72C151.9 23.24 152.297 24.44 153.09 25.32C153.877 26.2067 155.007 26.65 156.48 26.65ZM173.78 30.5H168.94V17.78H166.55V13H171.45V15.86H172.73C173.35 14.8467 174.157 14.0633 175.15 13.51C176.143 12.9567 177.37 12.68 178.83 12.68C180.23 12.68 181.43 12.9267 182.43 13.42C183.43 13.92 184.23 14.6567 184.83 15.63H184.95C186.29 13.6633 188.283 12.68 190.93 12.68C193.183 12.68 194.973 13.3367 196.3 14.65C197.62 15.9633 198.28 17.7367 198.28 19.97V30.5H193.44V20.9C193.44 18.3 192.203 17 189.73 17C187.263 17 186.03 18.3 186.03 20.9V30.5H181.19V20.9C181.19 18.3 179.937 17 177.43 17C176.223 17 175.313 17.32 174.7 17.96C174.087 18.6 173.78 19.58 173.78 20.9V30.5Z" fill="#111111"/>
</svg>
