<svg width="213" height="42" viewBox="0 0 213 42" fill="none" xmlns="http://www.w3.org/2000/svg">
<path d="M21.3474 1.34998L46.7544 26.7266V40.3499H34.8978V31.624L16.4444 13.1924H12.611V40.3499H0.754395V1.34998H21.3474ZM34.8978 14.8842V1.34998H46.7544V14.8842H34.8978Z" fill="#006FEE"/>
<path d="M65.3 34H60.75V9.50001H64.46L76.4 23.67C76.68 23.9967 76.9533 24.33 77.22 24.67C77.4867 25.01 77.75 25.3533 78.01 25.7C77.9367 25.1867 77.89 24.5767 77.87 23.87C77.8433 23.1567 77.83 22.4367 77.83 21.71V9.50001H82.31V34H79.13L66.73 19.26C66.4567 18.9333 66.1833 18.6033 65.91 18.27C65.6433 17.93 65.3833 17.5833 65.13 17.23C65.1967 17.7433 65.2433 18.3567 65.27 19.07C65.29 19.7833 65.3 20.5 65.3 21.22V34ZM94.46 34.45C92.5933 34.45 90.9233 34.02 89.45 33.16C87.9833 32.2933 86.8333 31.1433 86 29.71C85.1733 28.2767 84.76 26.6833 84.76 24.93C84.76 23.1833 85.1733 21.5867 86 20.14C86.8333 18.6933 87.9833 17.5367 89.45 16.67C90.9233 15.81 92.5933 15.38 94.46 15.38C96.3467 15.38 98.02 15.81 99.48 16.67C100.94 17.5367 102.083 18.6933 102.91 20.14C103.737 21.5867 104.15 23.1833 104.15 24.93C104.15 26.6833 103.737 28.2767 102.91 29.71C102.083 31.1433 100.94 32.2933 99.48 33.16C98.02 34.02 96.3467 34.45 94.46 34.45ZM94.46 30.15C95.46 30.15 96.3333 29.91 97.08 29.43C97.8267 28.95 98.4033 28.3133 98.81 27.52C99.2233 26.7333 99.43 25.87 99.43 24.93C99.43 23.9767 99.2233 23.1033 98.81 22.31C98.4033 21.5167 97.8267 20.88 97.08 20.4C96.3333 19.92 95.46 19.68 94.46 19.68C93.4533 19.68 92.5767 19.92 91.83 20.4C91.0833 20.88 90.5067 21.5167 90.1 22.31C89.6867 23.1033 89.48 23.9767 89.48 24.93C89.48 25.87 89.6867 26.7333 90.1 27.52C90.5067 28.3133 91.0833 28.95 91.83 29.43C92.5767 29.91 93.4533 30.15 94.46 30.15ZM110.98 34H106.25V15.8H110.84V19.26C111.14 17.9533 111.757 16.9567 112.69 16.27C113.623 15.5833 114.883 15.2867 116.47 15.38V19.82H115.81C114.457 19.82 113.313 20.2533 112.38 21.12C111.447 21.98 110.98 23.17 110.98 24.69V34ZM127.95 34H125.36C123.567 34 122.19 33.5567 121.23 32.67C120.277 31.7833 119.8 30.3467 119.8 28.36V19.82H117.24V15.8H119.8V12.12L124.52 11.63V15.8H128.37V19.82H124.52V28.12C124.52 29.24 125.01 29.8 125.99 29.8H127.95V34ZM134.67 34H129.95V8.45001H134.67V18.32C135.65 16.36 137.483 15.38 140.17 15.38C141.477 15.38 142.653 15.6833 143.7 16.29C144.753 16.8967 145.583 17.76 146.19 18.88C146.797 20 147.1 21.33 147.1 22.87V34H142.37V24.02C142.37 22.4333 142.01 21.2867 141.29 20.58C140.563 19.8667 139.617 19.51 138.45 19.51C137.45 19.51 136.57 19.8667 135.81 20.58C135.05 21.2867 134.67 22.4333 134.67 24.02V34ZM158.05 34.45C156.117 34.45 154.337 34.0367 152.71 33.21C151.09 32.3833 149.743 31.0367 148.67 29.17L152.91 26.48C153.537 27.7333 154.33 28.6467 155.29 29.22C156.243 29.7933 157.257 30.08 158.33 30.08C159.477 30.08 160.377 29.8233 161.03 29.31C161.683 28.7967 162.01 28.12 162.01 27.28C162.01 26.46 161.753 25.8067 161.24 25.32C160.727 24.8333 160.043 24.4367 159.19 24.13C158.337 23.8233 157.41 23.5433 156.41 23.29C154.517 22.7967 153.01 21.9867 151.89 20.86C150.77 19.7267 150.21 18.2367 150.21 16.39C150.21 14.9233 150.573 13.64 151.3 12.54C152.02 11.4467 153.027 10.5967 154.32 9.99001C155.62 9.38335 157.133 9.08001 158.86 9.08001C160.773 9.08001 162.37 9.47668 163.65 10.27C164.937 11.0633 166.033 12.1833 166.94 13.63L162.74 16.22C162.16 15.26 161.553 14.56 160.92 14.12C160.293 13.6733 159.523 13.45 158.61 13.45C157.63 13.45 156.82 13.6967 156.18 14.19C155.54 14.6767 155.22 15.33 155.22 16.15C155.22 17.0567 155.597 17.7167 156.35 18.13C157.11 18.5367 158.027 18.9033 159.1 19.23C159.827 19.4633 160.637 19.7367 161.53 20.05C162.43 20.3633 163.3 20.7967 164.14 21.35C164.98 21.8967 165.67 22.6233 166.21 23.53C166.743 24.4433 167.01 25.6 167.01 27C167.01 28.4667 166.65 29.76 165.93 30.88C165.203 32.0067 164.177 32.8833 162.85 33.51C161.517 34.1367 159.917 34.45 158.05 34.45ZM178.32 34H175.73C173.93 34 172.553 33.5567 171.6 32.67C170.64 31.7833 170.16 30.3467 170.16 28.36V19.82H167.61V15.8H170.16V12.12L174.89 11.63V15.8H178.74V19.82H174.89V28.12C174.89 29.24 175.38 29.8 176.36 29.8H178.32V34ZM188.12 34.45C186.46 34.45 184.947 34.0267 183.58 33.18C182.22 32.3267 181.137 31.1833 180.33 29.75C179.523 28.31 179.12 26.7167 179.12 24.97C179.12 23.6633 179.353 22.4333 179.82 21.28C180.287 20.12 180.93 19.1033 181.75 18.23C182.563 17.3567 183.513 16.67 184.6 16.17C185.687 15.6633 186.86 15.41 188.12 15.41C189.707 15.41 190.943 15.71 191.83 16.31C192.717 16.9033 193.403 17.69 193.89 18.67V15.8H198.58V34H194V31.02C193.507 32.0533 192.81 32.8833 191.91 33.51C191.017 34.1367 189.753 34.45 188.12 34.45ZM188.89 30.18C189.937 30.18 190.84 29.9433 191.6 29.47C192.36 28.99 192.95 28.3533 193.37 27.56C193.79 26.7667 194 25.9033 194 24.97C194 24.01 193.79 23.1333 193.37 22.34C192.95 21.5467 192.36 20.9067 191.6 20.42C190.84 19.9267 189.937 19.68 188.89 19.68C187.883 19.68 187 19.92 186.24 20.4C185.487 20.88 184.9 21.5167 184.48 22.31C184.06 23.1033 183.85 23.9767 183.85 24.93C183.85 25.8433 184.06 26.7033 184.48 27.51C184.9 28.31 185.487 28.9567 186.24 29.45C187 29.9367 187.883 30.18 188.89 30.18ZM206.11 34H201.38V15.8H205.97V19.26C206.27 17.9533 206.887 16.9567 207.82 16.27C208.753 15.5833 210.013 15.2867 211.6 15.38V19.82H210.94C209.587 19.82 208.443 20.2533 207.51 21.12C206.577 21.98 206.11 23.17 206.11 24.69V34Z" fill="#111111"/>
</svg>
