<svg width="188" height="48" viewBox="0 0 188 48" fill="none" xmlns="http://www.w3.org/2000/svg">
<path d="M20 4V16.3604C20 19.087 16.6569 20.3998 14.8016 18.4017L7 10M40 24H27.6396C24.913 24 23.6002 20.6569 25.5983 18.8016L34 11M20 44V31.6396C20 28.913 23.3431 27.6002 25.1984 29.5983L33 38M0 24H12.3604C15.087 24 16.3998 27.3431 14.4017 29.1984L6 37" stroke="#175CD3" stroke-width="4"/>
<path d="M54 35L48.57 14H54.3L57.15 27.02L60.45 14H65.55L69.24 27.08L72.3 14H77.4L72 35H66.6L62.85 21.44L59.4 35H54ZM82.9559 35.39C81.8159 35.39 80.8359 35.17 80.0159 34.73C79.2159 34.29 78.6059 33.69 78.1859 32.93C77.7659 32.15 77.5559 31.29 77.5559 30.35C77.5559 28.77 78.0359 27.56 78.9959 26.72C79.9759 25.88 81.4459 25.46 83.4059 25.46H87.9059V24.8C87.9059 23.84 87.6759 23.18 87.2159 22.82C86.7759 22.46 86.1559 22.28 85.3559 22.28C84.5959 22.28 84.0359 22.4 83.6759 22.64C83.3159 22.86 83.1159 23.23 83.0759 23.75H78.4559C78.5159 22.79 78.8159 21.93 79.3559 21.17C79.9159 20.41 80.7059 19.81 81.7259 19.37C82.7659 18.93 84.0259 18.71 85.5059 18.71C86.9059 18.71 88.1359 18.92 89.1959 19.34C90.2559 19.76 91.0759 20.44 91.6559 21.38C92.2559 22.3 92.5559 23.54 92.5559 25.1V30.95C92.5559 31.79 92.5759 32.53 92.6159 33.17C92.6559 33.79 92.7159 34.4 92.7959 35H88.3859C88.3659 34.66 88.3359 34.36 88.2959 34.1C88.2759 33.84 88.2659 33.52 88.2659 33.14C87.7859 33.78 87.1159 34.32 86.2559 34.76C85.4159 35.18 84.3159 35.39 82.9559 35.39ZM84.4559 32.12C85.1159 32.12 85.7059 32 86.2259 31.76C86.7459 31.52 87.1559 31.16 87.4559 30.68C87.7559 30.18 87.9059 29.62 87.9059 29V28.34H84.3059C83.6259 28.34 83.1159 28.52 82.7759 28.88C82.4559 29.24 82.2959 29.65 82.2959 30.11C82.2959 30.71 82.4559 31.2 82.7759 31.58C83.1159 31.94 83.6759 32.12 84.4559 32.12ZM95.4082 35V19.1H99.6682V21.26C99.8282 20.9 100.098 20.52 100.478 20.12C100.858 19.72 101.318 19.39 101.858 19.13C102.398 18.85 102.998 18.71 103.658 18.71C103.998 18.71 104.268 18.73 104.468 18.77C104.668 18.81 104.848 18.85 105.008 18.89V22.88C104.908 22.82 104.678 22.75 104.318 22.67C103.958 22.59 103.548 22.55 103.088 22.55C102.368 22.55 101.778 22.69 101.318 22.97C100.878 23.25 100.548 23.63 100.328 24.11C100.128 24.59 100.028 25.13 100.028 25.73V35H95.4082ZM107.098 41V19.1H111.358V21.26C111.778 20.62 112.398 20.04 113.218 19.52C114.058 18.98 115.088 18.71 116.308 18.71C118.548 18.71 120.248 19.37 121.408 20.69C122.568 22.01 123.148 23.98 123.148 26.6V27.2C123.148 29 122.868 30.51 122.308 31.73C121.748 32.93 120.958 33.84 119.938 34.46C118.918 35.08 117.708 35.39 116.308 35.39C115.408 35.39 114.548 35.19 113.728 34.79C112.928 34.37 112.258 33.77 111.718 32.99V41H107.098ZM115.198 31.58C116.118 31.58 116.878 31.21 117.478 30.47C118.098 29.71 118.408 28.62 118.408 27.2V26.6C118.408 25.22 118.108 24.2 117.508 23.54C116.928 22.86 116.158 22.52 115.198 22.52C114.558 22.52 113.968 22.66 113.428 22.94C112.908 23.2 112.488 23.6 112.168 24.14C111.868 24.68 111.718 25.35 111.718 26.15V27.65C111.718 28.47 111.868 29.18 112.168 29.78C112.488 30.36 112.908 30.81 113.428 31.13C113.968 31.43 114.558 31.58 115.198 31.58ZM126.155 35V14H131.555V30.56H140.555V35H126.155ZM143.264 35V14H148.784L154.604 24.65L160.364 14H165.764V35H160.364V22.97L156.014 30.95H153.014L148.664 22.97V35H143.264ZM177.904 35.39C175.944 35.39 174.314 35.13 173.014 34.61C171.714 34.09 170.734 33.36 170.074 32.42C169.434 31.46 169.094 30.32 169.054 29H174.454C174.614 29.76 174.964 30.32 175.504 30.68C176.044 31.02 176.844 31.19 177.904 31.19C179.044 31.19 179.894 31.03 180.454 30.71C181.034 30.39 181.324 29.9 181.324 29.24C181.324 28.7 181.134 28.27 180.754 27.95C180.394 27.63 179.834 27.36 179.074 27.14C178.314 26.92 177.404 26.69 176.344 26.45C174.964 26.13 173.774 25.72 172.774 25.22C171.774 24.7 171.004 24.01 170.464 23.15C169.924 22.29 169.654 21.18 169.654 19.82C169.654 18.5 169.984 17.38 170.644 16.46C171.324 15.54 172.284 14.84 173.524 14.36C174.764 13.86 176.224 13.61 177.904 13.61C179.744 13.61 181.264 13.85 182.464 14.33C183.684 14.81 184.604 15.5 185.224 16.4C185.864 17.3 186.224 18.4 186.304 19.7H180.904C180.784 19.06 180.494 18.59 180.034 18.29C179.574 17.97 178.864 17.81 177.904 17.81C176.844 17.81 176.104 17.98 175.684 18.32C175.264 18.66 175.054 19.1 175.054 19.64C175.054 20.38 175.434 20.92 176.194 21.26C176.974 21.6 178.094 21.91 179.554 22.19C180.634 22.41 181.614 22.68 182.494 23C183.394 23.32 184.154 23.73 184.774 24.23C185.414 24.73 185.904 25.35 186.244 26.09C186.584 26.81 186.754 27.7 186.754 28.76C186.754 30.14 186.404 31.33 185.704 32.33C185.004 33.31 183.994 34.07 182.674 34.61C181.354 35.13 179.764 35.39 177.904 35.39Z" fill="black"/>
</svg>
