<svg width="175" height="48" viewBox="0 0 175 48" fill="none" xmlns="http://www.w3.org/2000/svg">
<path opacity="0.4" d="M45.7999 21.2369C43.7211 23.3157 40.3508 23.3157 38.272 21.2369C36.1932 19.1582 36.1932 15.7878 38.272 13.709C40.3508 11.6302 43.7211 11.6302 45.7999 13.709C47.8787 15.7878 47.8787 19.1582 45.7999 21.2369Z" fill="#155EEF"/>
<path opacity="0.6" d="M45.7954 21.2361C43.7166 23.3148 40.3462 23.3148 38.2674 21.2361L30.8331 13.8018C28.7543 11.723 25.384 11.723 23.3052 13.8018C21.2264 15.8806 21.2264 19.2509 23.3052 21.3297L30.7395 28.764C32.8183 30.8428 36.1886 30.8428 38.2674 28.764L45.7954 21.2361Z" fill="#155EEF"/>
<path d="M38.2671 28.7652C36.1883 30.844 32.8179 30.844 30.7391 28.7652L16.3106 14.3366C13.5388 11.5649 9.04501 11.5649 6.27329 14.3366L0 20.6099C2.07879 18.5311 5.44916 18.5311 7.52795 20.6099L23.2112 36.2931C25.29 38.3719 28.6603 38.3719 30.7391 36.2931L38.2671 28.7652Z" fill="#155EEF"/>
<path d="M63 34L58.475 16.5H63.25L65.625 27.35L68.375 16.5H72.625L75.7 27.4L78.25 16.5H82.5L78 34H73.5L70.375 22.7L67.5 34H63ZM87.1299 34.325C86.1799 34.325 85.3632 34.1417 84.6799 33.775C84.0132 33.4083 83.5049 32.9083 83.1549 32.275C82.8049 31.625 82.6299 30.9083 82.6299 30.125C82.6299 28.8083 83.0299 27.8 83.8299 27.1C84.6465 26.4 85.8715 26.05 87.5049 26.05H91.2549V25.5C91.2549 24.7 91.0632 24.15 90.6799 23.85C90.3132 23.55 89.7965 23.4 89.1299 23.4C88.4965 23.4 88.0299 23.5 87.7299 23.7C87.4299 23.8833 87.2632 24.1917 87.2299 24.625H83.3799C83.4299 23.825 83.6799 23.1083 84.1299 22.475C84.5965 21.8417 85.2549 21.3417 86.1049 20.975C86.9715 20.6083 88.0215 20.425 89.2549 20.425C90.4215 20.425 91.4465 20.6 92.3299 20.95C93.2132 21.3 93.8965 21.8667 94.3799 22.65C94.8799 23.4167 95.1299 24.45 95.1299 25.75V30.625C95.1299 31.325 95.1465 31.9417 95.1799 32.475C95.2132 32.9917 95.2632 33.5 95.3299 34H91.6549C91.6382 33.7167 91.6132 33.4667 91.5799 33.25C91.5632 33.0333 91.5549 32.7667 91.5549 32.45C91.1549 32.9833 90.5966 33.4333 89.8799 33.8C89.1799 34.15 88.2632 34.325 87.1299 34.325ZM88.3799 31.6C88.9299 31.6 89.4215 31.5 89.8549 31.3C90.2882 31.1 90.6299 30.8 90.8799 30.4C91.1299 29.9833 91.2549 29.5167 91.2549 29V28.45H88.2549C87.6882 28.45 87.2632 28.6 86.9799 28.9C86.7132 29.2 86.5799 29.5417 86.5799 29.925C86.5799 30.425 86.7132 30.8333 86.9799 31.15C87.2632 31.45 87.7299 31.6 88.3799 31.6ZM97.5068 34V20.75H101.057V22.55C101.19 22.25 101.415 21.9333 101.732 21.6C102.049 21.2667 102.432 20.9917 102.882 20.775C103.332 20.5417 103.832 20.425 104.382 20.425C104.665 20.425 104.89 20.4417 105.057 20.475C105.224 20.5083 105.374 20.5417 105.507 20.575V23.9C105.424 23.85 105.232 23.7917 104.932 23.725C104.632 23.6583 104.29 23.625 103.907 23.625C103.307 23.625 102.815 23.7417 102.432 23.975C102.065 24.2083 101.79 24.525 101.607 24.925C101.44 25.325 101.357 25.775 101.357 26.275V34H97.5068ZM107.248 39V20.75H110.798V22.55C111.148 22.0167 111.665 21.5333 112.348 21.1C113.048 20.65 113.906 20.425 114.923 20.425C116.79 20.425 118.206 20.975 119.173 22.075C120.14 23.175 120.623 24.8167 120.623 27V27.5C120.623 29 120.39 30.2583 119.923 31.275C119.456 32.275 118.798 33.0333 117.948 33.55C117.098 34.0667 116.09 34.325 114.923 34.325C114.173 34.325 113.456 34.1583 112.773 33.825C112.106 33.475 111.548 32.975 111.098 32.325V39H107.248ZM113.998 31.15C114.765 31.15 115.398 30.8417 115.898 30.225C116.415 29.5917 116.673 28.6833 116.673 27.5V27C116.673 25.85 116.423 25 115.923 24.45C115.44 23.8833 114.798 23.6 113.998 23.6C113.465 23.6 112.973 23.7167 112.523 23.95C112.09 24.1667 111.74 24.5 111.473 24.95C111.223 25.4 111.098 25.9583 111.098 26.625V27.875C111.098 28.5583 111.223 29.15 111.473 29.65C111.74 30.1333 112.09 30.5083 112.523 30.775C112.973 31.025 113.465 31.15 113.998 31.15ZM123.129 34V16.5H127.629V30.3H135.129V34H123.129ZM137.387 34V16.5H141.987L146.837 25.375L151.637 16.5H156.137V34H151.637V23.975L148.012 30.625H145.512L141.887 23.975V34H137.387ZM166.253 34.325C164.62 34.325 163.261 34.1083 162.178 33.675C161.095 33.2417 160.278 32.6333 159.728 31.85C159.195 31.05 158.911 30.1 158.878 29H163.378C163.511 29.6333 163.803 30.1 164.253 30.4C164.703 30.6833 165.37 30.825 166.253 30.825C167.203 30.825 167.911 30.6917 168.378 30.425C168.861 30.1583 169.103 29.75 169.103 29.2C169.103 28.75 168.945 28.3917 168.628 28.125C168.328 27.8583 167.861 27.6333 167.228 27.45C166.595 27.2667 165.836 27.075 164.953 26.875C163.803 26.6083 162.811 26.2667 161.978 25.85C161.145 25.4167 160.503 24.8417 160.053 24.125C159.603 23.4083 159.378 22.4833 159.378 21.35C159.378 20.25 159.653 19.3167 160.203 18.55C160.77 17.7833 161.57 17.2 162.603 16.8C163.636 16.3833 164.853 16.175 166.253 16.175C167.786 16.175 169.053 16.375 170.053 16.775C171.07 17.175 171.836 17.75 172.353 18.5C172.886 19.25 173.186 20.1667 173.253 21.25H168.753C168.653 20.7167 168.411 20.325 168.028 20.075C167.645 19.8083 167.053 19.675 166.253 19.675C165.37 19.675 164.753 19.8167 164.403 20.1C164.053 20.3833 163.878 20.75 163.878 21.2C163.878 21.8167 164.195 22.2667 164.828 22.55C165.478 22.8333 166.411 23.0917 167.628 23.325C168.528 23.5083 169.345 23.7333 170.078 24C170.828 24.2667 171.461 24.6083 171.978 25.025C172.511 25.4417 172.92 25.9583 173.203 26.575C173.486 27.175 173.628 27.9167 173.628 28.8C173.628 29.95 173.336 30.9417 172.753 31.775C172.17 32.5917 171.328 33.225 170.228 33.675C169.128 34.1083 167.803 34.325 166.253 34.325Z" fill="black"/>
</svg>
